M48
; DRILL file {KiCad 5.1.10-88a1d61d58~88~ubuntu18.04.1} date Fri Nov 12 09:48:05 2021
; FORMAT={-:-/ absolute / inch / decimal}
; #@! TF.CreationDate,2021-11-12T09:48:05+07:00
; #@! TF.GenerationSoftware,Kicad,Pcbnew,5.1.10-88a1d61d58~88~ubuntu18.04.1
FMAT,2
INCH
T1C0.0157
T2C0.0315
T3C0.0866
T4C0.0610
%
G90
G05
T1
X4.0981Y-4.0864
X4.0983Y-3.992
X4.0988Y-3.8986
X4.0996Y-3.7406
X4.1Y-3.571
X4.1Y-3.646
X4.243Y-4.055
X4.2437Y-3.6139
X4.2437Y-3.8029
X4.2437Y-3.8659
X4.244Y-3.9289
X4.2449Y-3.677
X4.283Y-3.7084
X4.283Y-3.7714
X4.283Y-3.8344
X4.283Y-3.9604
X4.283Y-4.0234
X4.285Y-3.5824
X4.2945Y-3.8975
X4.2965Y-3.6455
X4.647Y-3.66
X4.6475Y-4.0145
X4.65Y-3.4685
X4.6995Y-3.5
X4.9585Y-3.804
X4.986Y-3.866
X5.002Y-4.0155
X5.0035Y-3.6615
X5.0055Y-3.541
X5.0505Y-3.769
X5.1005Y-3.8345
X5.162Y-3.7965
X5.1945Y-3.7635
X5.201Y-3.8715
X5.2025Y-4.015
X5.2645Y-3.947
X5.2655Y-3.5845
X5.2758Y-4.0664
X5.303Y-3.977
X5.3165Y-3.776
X5.3403Y-4.0735
X5.341Y-3.9115
X5.4555Y-3.732
X5.456Y-3.683
X5.4575Y-3.9485
X5.4577Y-3.6338
X5.4619Y-3.8761
X5.4725Y-3.452
X5.4745Y-4.152
X5.4852Y-3.9095
X5.4855Y-3.99
T2
X4.1279Y-3.4604
X4.1279Y-4.1612
X4.2079Y-3.4604
X4.2079Y-4.1612
X4.3653Y-3.4604
X4.3653Y-4.1612
X4.4929Y-3.4604
X4.5323Y-4.1612
T3
X4.162Y-3.1165
X4.162Y-4.4581
X5.4942Y-3.1165
X5.4942Y-4.4581
T4
X4.2866Y-3.4958
X4.2866Y-4.1257
T0
M30
