%TF.GenerationSoftware,KiCad,Pcbnew,5.1.10-88a1d61d58~88~ubuntu18.04.1*%
%TF.CreationDate,2021-11-12T09:48:00+07:00*%
%TF.ProjectId,MX8Mx_EVK_MIPI_CSI-EYECLOUDAI_2MGSMOD_AR0234-ADAPTER,4d58384d-785f-4455-964b-5f4d4950495f,rev?*%
%TF.SameCoordinates,Original*%
%TF.FileFunction,Copper,L2,Bot*%
%TF.FilePolarity,Positive*%
%FSLAX46Y46*%
G04 Gerber Fmt 4.6, Leading zero omitted, Abs format (unit mm)*
G04 Created by KiCad (PCBNEW 5.1.10-88a1d61d58~88~ubuntu18.04.1) date 2021-11-12 09:48:00*
%MOMM*%
%LPD*%
G01*
G04 APERTURE LIST*
%TA.AperFunction,SMDPad,CuDef*%
%ADD10R,0.800000X1.600000*%
%TD*%
%TA.AperFunction,SMDPad,CuDef*%
%ADD11R,2.100000X3.000000*%
%TD*%
%TA.AperFunction,ComponentPad*%
%ADD12C,1.308000*%
%TD*%
%TA.AperFunction,ComponentPad*%
%ADD13C,4.400000*%
%TD*%
%TA.AperFunction,ViaPad*%
%ADD14C,0.800000*%
%TD*%
%TA.AperFunction,Conductor*%
%ADD15C,0.250000*%
%TD*%
%TA.AperFunction,Conductor*%
%ADD16C,0.200000*%
%TD*%
%TA.AperFunction,Conductor*%
%ADD17C,0.254000*%
%TD*%
%TA.AperFunction,Conductor*%
%ADD18C,0.100000*%
%TD*%
G04 APERTURE END LIST*
D10*
%TO.P,J3,2*%
%TO.N,/TRIGGER*%
X123053000Y-81932100D03*
%TO.P,J3,1*%
%TO.N,/FRAME_VALID*%
X121803000Y-81932100D03*
D11*
%TO.P,J3,P2*%
%TO.N,N/C*%
X125603000Y-79032100D03*
%TO.P,J3,P1*%
X119253000Y-79032100D03*
%TD*%
D12*
%TO.P,J1,S1*%
%TO.N,GND*%
X114119400Y-87893500D03*
%TO.P,J1,S2*%
X110879400Y-87893500D03*
%TO.P,J1,S3*%
X106879400Y-87893500D03*
%TO.P,J1,S4*%
X104849400Y-87893500D03*
%TO.P,J1,S5*%
X115119400Y-105693500D03*
%TO.P,J1,S6*%
X110879400Y-105693500D03*
%TO.P,J1,S7*%
X106879400Y-105693500D03*
%TO.P,J1,S8*%
X104849400Y-105693500D03*
%TD*%
D13*
%TO.P,H4,1*%
%TO.N,N/C*%
X139552680Y-79159100D03*
%TD*%
%TO.P,H3,1*%
%TO.N,N/C*%
X139552680Y-113235740D03*
%TD*%
%TO.P,H2,1*%
%TO.N,N/C*%
X105714800Y-113235740D03*
%TD*%
%TO.P,H1,1*%
%TO.N,N/C*%
X105714800Y-79159100D03*
%TD*%
D14*
%TO.N,GND*%
X139052300Y-105460800D03*
X139001500Y-87680800D03*
X132143500Y-101981000D03*
X104129840Y-95011240D03*
X104140000Y-92608400D03*
X104109520Y-99024440D03*
X104091740Y-103794560D03*
X104140000Y-90703400D03*
X104096820Y-101396800D03*
X109080300Y-98996500D03*
X135661400Y-99352100D03*
X109131100Y-92595700D03*
X127088900Y-93002100D03*
X132105400Y-98336100D03*
X118033800Y-92964000D03*
X135039100Y-95910400D03*
X133743700Y-91046300D03*
X127139700Y-89941400D03*
X118046500Y-101968300D03*
X127050800Y-101993700D03*
X138582400Y-93548200D03*
%TO.N,/CSI_DN0__SD_LVDS0_N*%
X139324080Y-99301300D03*
X108839400Y-90993500D03*
%TO.N,/CSI_DP0__SD_LVDS0_P*%
X138732260Y-98452940D03*
X107789400Y-91793500D03*
%TO.N,/CSI_DN1__SD_LVDS1_N*%
X131114800Y-96431100D03*
X107820460Y-93395800D03*
%TO.N,/CSI_DP1__SD_LVDS1_P*%
X108789400Y-94193500D03*
X131940300Y-95592900D03*
%TO.N,/CSI_nRST_1V8*%
X125945900Y-96621600D03*
X107789400Y-96593500D03*
%TO.N,/CSI_DN2__SD_LVDS2_N*%
X133718300Y-100253800D03*
X107797600Y-99794060D03*
%TO.N,/CSI_DP2__SD_LVDS2_P*%
X134696200Y-101015800D03*
X108789400Y-100593500D03*
%TO.N,/CSI_DN3__SD_LVDS3_N*%
X134005320Y-103286560D03*
X108789400Y-102193500D03*
%TO.N,/CSI_DP3__SD_LVDS3_P*%
X135643620Y-103466900D03*
X107772200Y-102997000D03*
%TO.N,/CSI_CLK_N__SPCLK_LVDS0_N*%
X118110000Y-88099900D03*
X139331700Y-101346000D03*
%TO.N,/CSI_CLK_P__SPCLK_LVDS0_P*%
X119367300Y-88900000D03*
X138620500Y-100291900D03*
%TO.N,/TRIGGER*%
X138569700Y-94792800D03*
%TO.N,/FRAME_VALID*%
X138626160Y-92297940D03*
%TO.N,/CSI_MCLK_1V8*%
X108789400Y-95793500D03*
X128282700Y-95732600D03*
%TO.N,/I2C_SDA_1V8*%
X108789400Y-97393500D03*
X129552700Y-97396300D03*
%TO.N,/I2C_SCL_1V8*%
X107789400Y-98193500D03*
X126644400Y-98196400D03*
%TD*%
D15*
%TO.N,GND*%
X104140760Y-101393500D02*
X104096820Y-101437440D01*
X107789400Y-101393500D02*
X104100120Y-101393500D01*
X115312700Y-101393500D02*
X107789400Y-101393500D01*
X104100120Y-101393500D02*
X104096820Y-101396800D01*
X115514120Y-99024440D02*
X115516660Y-99026980D01*
X104109520Y-99024440D02*
X115514120Y-99024440D01*
X132508500Y-101393500D02*
X133311900Y-102196900D01*
X104100120Y-101393500D02*
X132508500Y-101393500D01*
D16*
%TO.N,/CSI_DN0__SD_LVDS0_N*%
X139432261Y-99193119D02*
X139324080Y-99301300D01*
X139432261Y-97626401D02*
X139432261Y-99193119D01*
X139077700Y-97271840D02*
X139368530Y-97562670D01*
X139368530Y-97562670D02*
X139432261Y-97626401D01*
X134188200Y-96939100D02*
X138744960Y-96939100D01*
X133692900Y-96443800D02*
X134188200Y-96939100D01*
X132166900Y-90993500D02*
X133692900Y-92519500D01*
X138744960Y-96939100D02*
X139368530Y-97562670D01*
X133692900Y-92519500D02*
X133692900Y-96443800D01*
X108839400Y-90993500D02*
X132166900Y-90993500D01*
%TO.N,/CSI_DP0__SD_LVDS0_P*%
X138732260Y-97820480D02*
X138732260Y-98452940D01*
X138333480Y-97421700D02*
X138732260Y-97820480D01*
X133896100Y-97421700D02*
X138333480Y-97421700D01*
X107789400Y-91793500D02*
X109145900Y-91793500D01*
X131927600Y-91503500D02*
X133146800Y-92722700D01*
X133146800Y-92722700D02*
X133146800Y-96672400D01*
X133146800Y-96672400D02*
X133896100Y-97421700D01*
X109145900Y-91793500D02*
X109435900Y-91503500D01*
X109435900Y-91503500D02*
X131927600Y-91503500D01*
%TO.N,/CSI_DN1__SD_LVDS1_N*%
X129667000Y-94983300D02*
X131114800Y-96431100D01*
X108064300Y-94983300D02*
X129667000Y-94983300D01*
X107820460Y-93395800D02*
X107820460Y-94739460D01*
X107820460Y-94739460D02*
X108064300Y-94983300D01*
%TO.N,/CSI_DP1__SD_LVDS1_P*%
X129009000Y-94193500D02*
X108789400Y-94193500D01*
X129194700Y-94193500D02*
X129009000Y-94193500D01*
X129009000Y-94193500D02*
X129669400Y-94193500D01*
X131940300Y-95592900D02*
X131343400Y-95592900D01*
X131343400Y-95592900D02*
X129944000Y-94193500D01*
X129944000Y-94193500D02*
X129669400Y-94193500D01*
D15*
%TO.N,/CSI_nRST_1V8*%
X107839400Y-96643500D02*
X107789400Y-96593500D01*
D16*
X107817500Y-96621600D02*
X107789400Y-96593500D01*
X125945900Y-96621600D02*
X107817500Y-96621600D01*
%TO.N,/CSI_DN2__SD_LVDS2_N*%
X109184440Y-99794060D02*
X107797600Y-99794060D01*
X109491780Y-100101400D02*
X109184440Y-99794060D01*
X133565900Y-100101400D02*
X109491780Y-100101400D01*
X133718300Y-100253800D02*
X133565900Y-100101400D01*
%TO.N,/CSI_DP2__SD_LVDS2_P*%
X134693660Y-101013260D02*
X134696200Y-101015800D01*
X133156960Y-101013260D02*
X134693660Y-101013260D01*
X132737200Y-100593500D02*
X133156960Y-101013260D01*
X108789400Y-100593500D02*
X132737200Y-100593500D01*
%TO.N,/CSI_DN3__SD_LVDS3_N*%
X115459198Y-102193500D02*
X108789400Y-102193500D01*
X116552258Y-103286560D02*
X115459198Y-102193500D01*
X134005320Y-103286560D02*
X116552258Y-103286560D01*
%TO.N,/CSI_DP3__SD_LVDS3_P*%
X115290600Y-102997000D02*
X107772200Y-102997000D01*
X116363750Y-104070150D02*
X115290600Y-102997000D01*
X134334250Y-104070150D02*
X116363750Y-104070150D01*
X134937500Y-103466900D02*
X134334250Y-104070150D01*
X135643620Y-103466900D02*
X134937500Y-103466900D01*
%TO.N,/CSI_CLK_N__SPCLK_LVDS0_N*%
X118110000Y-88099900D02*
X133235700Y-88099900D01*
X137140990Y-95764390D02*
X139134890Y-95764390D01*
X133235700Y-88099900D02*
X136817100Y-91681300D01*
X136817100Y-91681300D02*
X136817100Y-95440500D01*
X136817100Y-95440500D02*
X137140990Y-95764390D01*
X140709610Y-97433811D02*
X140709610Y-99968090D01*
X140709610Y-99968090D02*
X139331700Y-101346000D01*
X140690600Y-97414801D02*
X140709610Y-97433811D01*
X140690600Y-97320100D02*
X140690600Y-97414801D01*
X139134890Y-95764390D02*
X140690600Y-97320100D01*
%TO.N,/CSI_CLK_P__SPCLK_LVDS0_P*%
X133121400Y-88900000D02*
X119367300Y-88900000D01*
X136296400Y-92075000D02*
X133121400Y-88900000D01*
X136296400Y-95770700D02*
X136296400Y-92075000D01*
X138620500Y-100291900D02*
X139611100Y-100291900D01*
X139611100Y-100291900D02*
X140309600Y-99593400D01*
X140309600Y-99593400D02*
X140309600Y-97599500D01*
X140309600Y-97599500D02*
X138874500Y-96164400D01*
X138874500Y-96164400D02*
X136690100Y-96164400D01*
X136690100Y-96164400D02*
X136296400Y-95770700D01*
%TO.N,/TRIGGER*%
X138569700Y-94792800D02*
X139242800Y-94792800D01*
X139369800Y-94665800D02*
X139369800Y-90271600D01*
X139242800Y-94792800D02*
X139369800Y-94665800D01*
X139369800Y-90271600D02*
X134594600Y-85496400D01*
X134594600Y-85496400D02*
X124040900Y-85496400D01*
X123053000Y-84508500D02*
X124040900Y-85496400D01*
X123053000Y-81932100D02*
X123053000Y-84508500D01*
X123061300Y-81940400D02*
X123053000Y-81932100D01*
%TO.N,/FRAME_VALID*%
X121803000Y-83859554D02*
X121803000Y-81932100D01*
X121803000Y-84541200D02*
X121803000Y-83859554D01*
X123520200Y-86258400D02*
X121803000Y-84541200D01*
X134264400Y-86258400D02*
X123520200Y-86258400D01*
X138626160Y-90620160D02*
X134264400Y-86258400D01*
X138626160Y-92297940D02*
X138626160Y-90620160D01*
%TO.N,/CSI_MCLK_1V8*%
X128336100Y-95793500D02*
X128358900Y-95770700D01*
X128221800Y-95793500D02*
X128282700Y-95732600D01*
X108789400Y-95793500D02*
X128221800Y-95793500D01*
%TO.N,/I2C_SDA_1V8*%
X108792200Y-97396300D02*
X108789400Y-97393500D01*
X129549900Y-97393500D02*
X129552700Y-97396300D01*
X108789400Y-97393500D02*
X129549900Y-97393500D01*
%TO.N,/I2C_SCL_1V8*%
X107789760Y-98193860D02*
X107789400Y-98193500D01*
X126641500Y-98193500D02*
X126644400Y-98196400D01*
X107789400Y-98193500D02*
X126641500Y-98193500D01*
%TD*%
D17*
%TO.N,GND*%
X138134115Y-76697330D02*
X137745473Y-76957012D01*
X137350592Y-77351893D01*
X137040336Y-77816224D01*
X136826628Y-78332161D01*
X136717680Y-78879877D01*
X136717680Y-79438323D01*
X136826628Y-79986039D01*
X137040336Y-80501976D01*
X137350592Y-80966307D01*
X137745473Y-81361188D01*
X138209804Y-81671444D01*
X138725741Y-81885152D01*
X139273457Y-81994100D01*
X139831903Y-81994100D01*
X140379619Y-81885152D01*
X140895556Y-81671444D01*
X141359887Y-81361188D01*
X141754768Y-80966307D01*
X142065024Y-80501976D01*
X142088000Y-80446507D01*
X142088001Y-111948335D01*
X142065024Y-111892864D01*
X141754768Y-111428533D01*
X141359887Y-111033652D01*
X140895556Y-110723396D01*
X140379619Y-110509688D01*
X139831903Y-110400740D01*
X139273457Y-110400740D01*
X138725741Y-110509688D01*
X138209804Y-110723396D01*
X137745473Y-111033652D01*
X137350592Y-111428533D01*
X137040336Y-111892864D01*
X136826628Y-112408801D01*
X136717680Y-112956517D01*
X136717680Y-113514963D01*
X136826628Y-114062679D01*
X137040336Y-114578616D01*
X137350592Y-115042947D01*
X137745473Y-115437828D01*
X138209804Y-115748084D01*
X138479721Y-115859887D01*
X106793484Y-115857516D01*
X107057676Y-115748084D01*
X107522007Y-115437828D01*
X107916888Y-115042947D01*
X108227144Y-114578616D01*
X108440852Y-114062679D01*
X108549800Y-113514963D01*
X108549800Y-112956517D01*
X108440852Y-112408801D01*
X108227144Y-111892864D01*
X107916888Y-111428533D01*
X107522007Y-111033652D01*
X107057676Y-110723396D01*
X106541739Y-110509688D01*
X105994023Y-110400740D01*
X105435577Y-110400740D01*
X104887861Y-110509688D01*
X104371924Y-110723396D01*
X103907593Y-111033652D01*
X103512712Y-111428533D01*
X103202456Y-111892864D01*
X102988748Y-112408801D01*
X102972100Y-112492496D01*
X102978693Y-106581887D01*
X104140618Y-106581887D01*
X104194493Y-106810968D01*
X104425084Y-106917263D01*
X104671981Y-106976528D01*
X104925696Y-106986488D01*
X105176479Y-106946759D01*
X105414693Y-106858868D01*
X105504307Y-106810968D01*
X105558182Y-106581887D01*
X106170618Y-106581887D01*
X106224493Y-106810968D01*
X106455084Y-106917263D01*
X106701981Y-106976528D01*
X106955696Y-106986488D01*
X107206479Y-106946759D01*
X107444693Y-106858868D01*
X107534307Y-106810968D01*
X107588182Y-106581887D01*
X110170618Y-106581887D01*
X110224493Y-106810968D01*
X110455084Y-106917263D01*
X110701981Y-106976528D01*
X110955696Y-106986488D01*
X111206479Y-106946759D01*
X111444693Y-106858868D01*
X111534307Y-106810968D01*
X111588182Y-106581887D01*
X114410618Y-106581887D01*
X114464493Y-106810968D01*
X114695084Y-106917263D01*
X114941981Y-106976528D01*
X115195696Y-106986488D01*
X115446479Y-106946759D01*
X115684693Y-106858868D01*
X115774307Y-106810968D01*
X115828182Y-106581887D01*
X115119400Y-105873105D01*
X114410618Y-106581887D01*
X111588182Y-106581887D01*
X110879400Y-105873105D01*
X110170618Y-106581887D01*
X107588182Y-106581887D01*
X106879400Y-105873105D01*
X106170618Y-106581887D01*
X105558182Y-106581887D01*
X104849400Y-105873105D01*
X104140618Y-106581887D01*
X102978693Y-106581887D01*
X102979599Y-105769796D01*
X103556412Y-105769796D01*
X103596141Y-106020579D01*
X103684032Y-106258793D01*
X103731932Y-106348407D01*
X103961013Y-106402282D01*
X104669795Y-105693500D01*
X105029005Y-105693500D01*
X105737787Y-106402282D01*
X105864400Y-106372505D01*
X105991013Y-106402282D01*
X106699795Y-105693500D01*
X105991013Y-104984718D01*
X105864400Y-105014495D01*
X105737787Y-104984718D01*
X105029005Y-105693500D01*
X104669795Y-105693500D01*
X103961013Y-104984718D01*
X103731932Y-105038593D01*
X103625637Y-105269184D01*
X103566372Y-105516081D01*
X103556412Y-105769796D01*
X102979599Y-105769796D01*
X102980675Y-104805113D01*
X104140618Y-104805113D01*
X104849400Y-105513895D01*
X105558182Y-104805113D01*
X105504307Y-104576032D01*
X105273716Y-104469737D01*
X105026819Y-104410472D01*
X104773104Y-104400512D01*
X104522321Y-104440241D01*
X104284107Y-104528132D01*
X104194493Y-104576032D01*
X104140618Y-104805113D01*
X102980675Y-104805113D01*
X102998548Y-88781887D01*
X104140618Y-88781887D01*
X104194493Y-89010968D01*
X104425084Y-89117263D01*
X104671981Y-89176528D01*
X104925696Y-89186488D01*
X105176479Y-89146759D01*
X105414693Y-89058868D01*
X105504307Y-89010968D01*
X105558182Y-88781887D01*
X106170618Y-88781887D01*
X106224493Y-89010968D01*
X106455084Y-89117263D01*
X106701981Y-89176528D01*
X106955696Y-89186488D01*
X107206479Y-89146759D01*
X107444693Y-89058868D01*
X107489769Y-89034774D01*
X107523586Y-89204782D01*
X107629875Y-89461385D01*
X107784182Y-89692322D01*
X107980578Y-89888718D01*
X108211515Y-90043025D01*
X108327213Y-90090949D01*
X108179626Y-90189563D01*
X108035463Y-90333726D01*
X107922195Y-90503244D01*
X107844174Y-90691602D01*
X107830867Y-90758500D01*
X107687461Y-90758500D01*
X107487502Y-90798274D01*
X107299144Y-90876295D01*
X107129626Y-90989563D01*
X106985463Y-91133726D01*
X106872195Y-91303244D01*
X106794174Y-91491602D01*
X106754400Y-91691561D01*
X106754400Y-91895439D01*
X106794174Y-92095398D01*
X106872195Y-92283756D01*
X106985463Y-92453274D01*
X107129626Y-92597437D01*
X107144904Y-92607645D01*
X107016523Y-92736026D01*
X106903255Y-92905544D01*
X106825234Y-93093902D01*
X106785460Y-93293861D01*
X106785460Y-93497739D01*
X106825234Y-93697698D01*
X106903255Y-93886056D01*
X107016523Y-94055574D01*
X107085461Y-94124512D01*
X107085461Y-94703345D01*
X107081904Y-94739460D01*
X107096095Y-94883545D01*
X107124995Y-94978813D01*
X107138124Y-95022093D01*
X107206374Y-95149780D01*
X107298223Y-95261698D01*
X107326268Y-95284714D01*
X107519041Y-95477487D01*
X107542062Y-95505538D01*
X107622372Y-95571447D01*
X107487502Y-95598274D01*
X107299144Y-95676295D01*
X107129626Y-95789563D01*
X106985463Y-95933726D01*
X106872195Y-96103244D01*
X106794174Y-96291602D01*
X106754400Y-96491561D01*
X106754400Y-96695439D01*
X106794174Y-96895398D01*
X106872195Y-97083756D01*
X106985463Y-97253274D01*
X107125689Y-97393500D01*
X106985463Y-97533726D01*
X106872195Y-97703244D01*
X106794174Y-97891602D01*
X106754400Y-98091561D01*
X106754400Y-98295439D01*
X106794174Y-98495398D01*
X106872195Y-98683756D01*
X106985463Y-98853274D01*
X107129626Y-98997437D01*
X107130157Y-98997792D01*
X106993663Y-99134286D01*
X106880395Y-99303804D01*
X106802374Y-99492162D01*
X106762600Y-99692121D01*
X106762600Y-99895999D01*
X106802374Y-100095958D01*
X106880395Y-100284316D01*
X106993663Y-100453834D01*
X107137826Y-100597997D01*
X107307344Y-100711265D01*
X107495702Y-100789286D01*
X107695661Y-100829060D01*
X107780979Y-100829060D01*
X107794174Y-100895398D01*
X107872195Y-101083756D01*
X107985463Y-101253274D01*
X108125689Y-101393500D01*
X107985463Y-101533726D01*
X107872195Y-101703244D01*
X107794174Y-101891602D01*
X107780171Y-101962000D01*
X107670261Y-101962000D01*
X107470302Y-102001774D01*
X107281944Y-102079795D01*
X107112426Y-102193063D01*
X106968263Y-102337226D01*
X106854995Y-102506744D01*
X106776974Y-102695102D01*
X106737200Y-102895061D01*
X106737200Y-103098939D01*
X106776974Y-103298898D01*
X106854995Y-103487256D01*
X106968263Y-103656774D01*
X107112426Y-103800937D01*
X107281944Y-103914205D01*
X107470302Y-103992226D01*
X107670261Y-104032000D01*
X107692426Y-104032000D01*
X107629875Y-104125615D01*
X107523586Y-104382218D01*
X107489172Y-104555226D01*
X107303716Y-104469737D01*
X107056819Y-104410472D01*
X106803104Y-104400512D01*
X106552321Y-104440241D01*
X106314107Y-104528132D01*
X106224493Y-104576032D01*
X106170618Y-104805113D01*
X106879400Y-105513895D01*
X106893543Y-105499753D01*
X107073148Y-105679358D01*
X107059005Y-105693500D01*
X107767787Y-106402282D01*
X107996868Y-106348407D01*
X108103163Y-106117816D01*
X108133611Y-105990971D01*
X108211515Y-106043025D01*
X108468118Y-106149314D01*
X108740527Y-106203500D01*
X109018273Y-106203500D01*
X109290682Y-106149314D01*
X109547285Y-106043025D01*
X109621808Y-105993230D01*
X109626141Y-106020579D01*
X109714032Y-106258793D01*
X109761932Y-106348407D01*
X109991013Y-106402282D01*
X110699795Y-105693500D01*
X111059005Y-105693500D01*
X111767787Y-106402282D01*
X111996868Y-106348407D01*
X112103163Y-106117816D01*
X112162428Y-105870919D01*
X112166397Y-105769796D01*
X113826412Y-105769796D01*
X113866141Y-106020579D01*
X113954032Y-106258793D01*
X114001932Y-106348407D01*
X114231013Y-106402282D01*
X114939795Y-105693500D01*
X115299005Y-105693500D01*
X116007787Y-106402282D01*
X116236868Y-106348407D01*
X116343163Y-106117816D01*
X116402428Y-105870919D01*
X116412388Y-105617204D01*
X116372659Y-105366421D01*
X116284768Y-105128207D01*
X116236868Y-105038593D01*
X116007787Y-104984718D01*
X115299005Y-105693500D01*
X114939795Y-105693500D01*
X114231013Y-104984718D01*
X114001932Y-105038593D01*
X113895637Y-105269184D01*
X113836372Y-105516081D01*
X113826412Y-105769796D01*
X112166397Y-105769796D01*
X112172388Y-105617204D01*
X112132659Y-105366421D01*
X112044768Y-105128207D01*
X111996868Y-105038593D01*
X111767787Y-104984718D01*
X111059005Y-105693500D01*
X110699795Y-105693500D01*
X110685653Y-105679358D01*
X110865258Y-105499753D01*
X110879400Y-105513895D01*
X111588182Y-104805113D01*
X114410618Y-104805113D01*
X115119400Y-105513895D01*
X115828182Y-104805113D01*
X115774307Y-104576032D01*
X115543716Y-104469737D01*
X115296819Y-104410472D01*
X115043104Y-104400512D01*
X114792321Y-104440241D01*
X114554107Y-104528132D01*
X114464493Y-104576032D01*
X114410618Y-104805113D01*
X111588182Y-104805113D01*
X111534307Y-104576032D01*
X111303716Y-104469737D01*
X111056819Y-104410472D01*
X110803104Y-104400512D01*
X110552321Y-104440241D01*
X110314107Y-104528132D01*
X110269031Y-104552226D01*
X110235214Y-104382218D01*
X110128925Y-104125615D01*
X109974618Y-103894678D01*
X109811940Y-103732000D01*
X114986154Y-103732000D01*
X115818496Y-104564343D01*
X115841512Y-104592388D01*
X115953430Y-104684237D01*
X116081117Y-104752487D01*
X116219665Y-104794515D01*
X116327645Y-104805150D01*
X116327654Y-104805150D01*
X116363749Y-104808705D01*
X116399844Y-104805150D01*
X134298145Y-104805150D01*
X134334250Y-104808706D01*
X134370355Y-104805150D01*
X134478335Y-104794515D01*
X134616883Y-104752487D01*
X134744570Y-104684237D01*
X134856488Y-104592388D01*
X134879508Y-104564338D01*
X135097241Y-104346605D01*
X135153364Y-104384105D01*
X135341722Y-104462126D01*
X135541681Y-104501900D01*
X135745559Y-104501900D01*
X135945518Y-104462126D01*
X136133876Y-104384105D01*
X136303394Y-104270837D01*
X136447557Y-104126674D01*
X136560825Y-103957156D01*
X136638846Y-103768798D01*
X136678620Y-103568839D01*
X136678620Y-103364961D01*
X136638846Y-103165002D01*
X136560825Y-102976644D01*
X136447557Y-102807126D01*
X136303394Y-102662963D01*
X136133876Y-102549695D01*
X135945518Y-102471674D01*
X135745559Y-102431900D01*
X135541681Y-102431900D01*
X135341722Y-102471674D01*
X135153364Y-102549695D01*
X134983846Y-102662963D01*
X134916384Y-102730425D01*
X134901404Y-102731900D01*
X134901395Y-102731900D01*
X134880844Y-102733924D01*
X134809257Y-102626786D01*
X134665094Y-102482623D01*
X134495576Y-102369355D01*
X134307218Y-102291334D01*
X134107259Y-102251560D01*
X133903381Y-102251560D01*
X133703422Y-102291334D01*
X133515064Y-102369355D01*
X133345546Y-102482623D01*
X133276609Y-102551560D01*
X116856705Y-102551560D01*
X116004456Y-101699312D01*
X115981436Y-101671262D01*
X115869518Y-101579413D01*
X115741831Y-101511163D01*
X115603283Y-101469135D01*
X115495303Y-101458500D01*
X115459198Y-101454944D01*
X115423093Y-101458500D01*
X109518111Y-101458500D01*
X109453111Y-101393500D01*
X109518111Y-101328500D01*
X132432754Y-101328500D01*
X132611701Y-101507447D01*
X132634722Y-101535498D01*
X132746640Y-101627347D01*
X132874327Y-101695597D01*
X133012875Y-101737625D01*
X133120855Y-101748260D01*
X133120864Y-101748260D01*
X133156959Y-101751815D01*
X133193054Y-101748260D01*
X133964949Y-101748260D01*
X134036426Y-101819737D01*
X134205944Y-101933005D01*
X134394302Y-102011026D01*
X134594261Y-102050800D01*
X134798139Y-102050800D01*
X134998098Y-102011026D01*
X135186456Y-101933005D01*
X135355974Y-101819737D01*
X135500137Y-101675574D01*
X135613405Y-101506056D01*
X135691426Y-101317698D01*
X135731200Y-101117739D01*
X135731200Y-100913861D01*
X135691426Y-100713902D01*
X135613405Y-100525544D01*
X135500137Y-100356026D01*
X135355974Y-100211863D01*
X135186456Y-100098595D01*
X134998098Y-100020574D01*
X134798139Y-99980800D01*
X134719274Y-99980800D01*
X134713526Y-99951902D01*
X134635505Y-99763544D01*
X134522237Y-99594026D01*
X134378074Y-99449863D01*
X134208556Y-99336595D01*
X134020198Y-99258574D01*
X133820239Y-99218800D01*
X133616361Y-99218800D01*
X133416402Y-99258574D01*
X133228044Y-99336595D01*
X133183438Y-99366400D01*
X109796226Y-99366400D01*
X109729699Y-99299873D01*
X109706678Y-99271822D01*
X109594760Y-99179973D01*
X109467073Y-99111723D01*
X109328525Y-99069695D01*
X109220545Y-99059060D01*
X109184440Y-99055504D01*
X109148335Y-99059060D01*
X108526311Y-99059060D01*
X108457374Y-98990123D01*
X108456843Y-98989768D01*
X108518111Y-98928500D01*
X125912789Y-98928500D01*
X125984626Y-99000337D01*
X126154144Y-99113605D01*
X126342502Y-99191626D01*
X126542461Y-99231400D01*
X126746339Y-99231400D01*
X126946298Y-99191626D01*
X127134656Y-99113605D01*
X127304174Y-99000337D01*
X127448337Y-98856174D01*
X127561605Y-98686656D01*
X127639626Y-98498298D01*
X127679400Y-98298339D01*
X127679400Y-98128500D01*
X128821189Y-98128500D01*
X128892926Y-98200237D01*
X129062444Y-98313505D01*
X129250802Y-98391526D01*
X129450761Y-98431300D01*
X129654639Y-98431300D01*
X129854598Y-98391526D01*
X130042956Y-98313505D01*
X130212474Y-98200237D01*
X130356637Y-98056074D01*
X130469905Y-97886556D01*
X130547926Y-97698198D01*
X130587700Y-97498239D01*
X130587700Y-97323687D01*
X130624544Y-97348305D01*
X130812902Y-97426326D01*
X131012861Y-97466100D01*
X131216739Y-97466100D01*
X131416698Y-97426326D01*
X131605056Y-97348305D01*
X131774574Y-97235037D01*
X131918737Y-97090874D01*
X132032005Y-96921356D01*
X132110026Y-96732998D01*
X132134585Y-96609531D01*
X132242198Y-96588126D01*
X132411801Y-96517874D01*
X132411801Y-96636285D01*
X132408244Y-96672400D01*
X132422435Y-96816485D01*
X132451281Y-96911574D01*
X132464464Y-96955033D01*
X132532714Y-97082720D01*
X132624563Y-97194638D01*
X132652608Y-97217654D01*
X133350846Y-97915893D01*
X133373862Y-97943938D01*
X133485780Y-98035787D01*
X133613467Y-98104037D01*
X133752015Y-98146065D01*
X133859995Y-98156700D01*
X133860004Y-98156700D01*
X133896099Y-98160255D01*
X133932194Y-98156700D01*
X137735909Y-98156700D01*
X137697260Y-98351001D01*
X137697260Y-98554879D01*
X137737034Y-98754838D01*
X137815055Y-98943196D01*
X137928323Y-99112714D01*
X138072486Y-99256877D01*
X138203439Y-99344377D01*
X138130244Y-99374695D01*
X137960726Y-99487963D01*
X137816563Y-99632126D01*
X137703295Y-99801644D01*
X137625274Y-99990002D01*
X137585500Y-100189961D01*
X137585500Y-100393839D01*
X137625274Y-100593798D01*
X137703295Y-100782156D01*
X137816563Y-100951674D01*
X137960726Y-101095837D01*
X138130244Y-101209105D01*
X138296700Y-101278054D01*
X138296700Y-101447939D01*
X138336474Y-101647898D01*
X138414495Y-101836256D01*
X138527763Y-102005774D01*
X138671926Y-102149937D01*
X138841444Y-102263205D01*
X139029802Y-102341226D01*
X139229761Y-102381000D01*
X139433639Y-102381000D01*
X139633598Y-102341226D01*
X139821956Y-102263205D01*
X139991474Y-102149937D01*
X140135637Y-102005774D01*
X140248905Y-101836256D01*
X140326926Y-101647898D01*
X140366700Y-101447939D01*
X140366700Y-101350446D01*
X141203803Y-100513344D01*
X141231848Y-100490328D01*
X141323697Y-100378410D01*
X141391947Y-100250723D01*
X141433975Y-100112175D01*
X141437470Y-100076693D01*
X141448166Y-99968091D01*
X141444610Y-99931986D01*
X141444610Y-97469905D01*
X141448165Y-97433810D01*
X141444610Y-97397715D01*
X141444610Y-97397706D01*
X141433975Y-97289726D01*
X141422409Y-97251599D01*
X141414965Y-97176015D01*
X141372937Y-97037467D01*
X141304687Y-96909780D01*
X141276254Y-96875135D01*
X141235853Y-96825906D01*
X141235850Y-96825903D01*
X141212837Y-96797862D01*
X141184797Y-96774850D01*
X139743039Y-95333093D01*
X139765038Y-95315038D01*
X139788059Y-95286987D01*
X139863992Y-95211054D01*
X139892037Y-95188038D01*
X139983887Y-95076120D01*
X140052137Y-94948433D01*
X140094165Y-94809885D01*
X140104800Y-94701905D01*
X140104800Y-94701898D01*
X140108355Y-94665801D01*
X140104800Y-94629704D01*
X140104800Y-90307705D01*
X140108356Y-90271600D01*
X140094165Y-90127515D01*
X140052137Y-89988966D01*
X139983887Y-89861280D01*
X139915053Y-89777406D01*
X139892038Y-89749362D01*
X139863993Y-89726346D01*
X135139859Y-85002213D01*
X135116838Y-84974162D01*
X135004920Y-84882313D01*
X134877233Y-84814063D01*
X134738685Y-84772035D01*
X134630705Y-84761400D01*
X134594600Y-84757844D01*
X134558495Y-84761400D01*
X124345347Y-84761400D01*
X123788000Y-84204054D01*
X123788000Y-83273057D01*
X123807494Y-83262637D01*
X123904185Y-83183285D01*
X123983537Y-83086594D01*
X124042502Y-82976280D01*
X124078812Y-82856582D01*
X124091072Y-82732100D01*
X124091072Y-81132100D01*
X124078812Y-81007618D01*
X124053614Y-80924552D01*
X124101815Y-80983285D01*
X124198506Y-81062637D01*
X124308820Y-81121602D01*
X124428518Y-81157912D01*
X124553000Y-81170172D01*
X126653000Y-81170172D01*
X126777482Y-81157912D01*
X126897180Y-81121602D01*
X127007494Y-81062637D01*
X127104185Y-80983285D01*
X127183537Y-80886594D01*
X127242502Y-80776280D01*
X127278812Y-80656582D01*
X127291072Y-80532100D01*
X127291072Y-77532100D01*
X127278812Y-77407618D01*
X127242502Y-77287920D01*
X127183537Y-77177606D01*
X127104185Y-77080915D01*
X127007494Y-77001563D01*
X126897180Y-76942598D01*
X126777482Y-76906288D01*
X126653000Y-76894028D01*
X124553000Y-76894028D01*
X124428518Y-76906288D01*
X124308820Y-76942598D01*
X124198506Y-77001563D01*
X124101815Y-77080915D01*
X124022463Y-77177606D01*
X123963498Y-77287920D01*
X123927188Y-77407618D01*
X123914928Y-77532100D01*
X123914928Y-80532100D01*
X123927188Y-80656582D01*
X123952386Y-80739648D01*
X123904185Y-80680915D01*
X123807494Y-80601563D01*
X123697180Y-80542598D01*
X123577482Y-80506288D01*
X123453000Y-80494028D01*
X122653000Y-80494028D01*
X122528518Y-80506288D01*
X122428000Y-80536780D01*
X122327482Y-80506288D01*
X122203000Y-80494028D01*
X121403000Y-80494028D01*
X121278518Y-80506288D01*
X121158820Y-80542598D01*
X121048506Y-80601563D01*
X120951815Y-80680915D01*
X120903614Y-80739648D01*
X120928812Y-80656582D01*
X120941072Y-80532100D01*
X120941072Y-77532100D01*
X120928812Y-77407618D01*
X120892502Y-77287920D01*
X120833537Y-77177606D01*
X120754185Y-77080915D01*
X120657494Y-77001563D01*
X120547180Y-76942598D01*
X120427482Y-76906288D01*
X120303000Y-76894028D01*
X118203000Y-76894028D01*
X118078518Y-76906288D01*
X117958820Y-76942598D01*
X117848506Y-77001563D01*
X117751815Y-77080915D01*
X117672463Y-77177606D01*
X117613498Y-77287920D01*
X117577188Y-77407618D01*
X117564928Y-77532100D01*
X117564928Y-80532100D01*
X117577188Y-80656582D01*
X117613498Y-80776280D01*
X117672463Y-80886594D01*
X117751815Y-80983285D01*
X117848506Y-81062637D01*
X117958820Y-81121602D01*
X118078518Y-81157912D01*
X118203000Y-81170172D01*
X120303000Y-81170172D01*
X120427482Y-81157912D01*
X120547180Y-81121602D01*
X120657494Y-81062637D01*
X120754185Y-80983285D01*
X120802386Y-80924552D01*
X120777188Y-81007618D01*
X120764928Y-81132100D01*
X120764928Y-82732100D01*
X120777188Y-82856582D01*
X120813498Y-82976280D01*
X120872463Y-83086594D01*
X120951815Y-83183285D01*
X121048506Y-83262637D01*
X121068000Y-83273057D01*
X121068000Y-84505095D01*
X121064444Y-84541200D01*
X121070049Y-84598110D01*
X121078635Y-84685284D01*
X121120663Y-84823832D01*
X121188913Y-84951519D01*
X121280762Y-85063437D01*
X121308808Y-85086454D01*
X122974946Y-86752593D01*
X122997962Y-86780638D01*
X123026006Y-86803653D01*
X123109880Y-86872487D01*
X123237566Y-86940737D01*
X123376115Y-86982765D01*
X123520200Y-86996956D01*
X123556305Y-86993400D01*
X133959954Y-86993400D01*
X137891161Y-90924608D01*
X137891160Y-91569229D01*
X137822223Y-91638166D01*
X137708955Y-91807684D01*
X137630934Y-91996042D01*
X137591160Y-92196001D01*
X137591160Y-92399879D01*
X137630934Y-92599838D01*
X137708955Y-92788196D01*
X137822223Y-92957714D01*
X137966386Y-93101877D01*
X138135904Y-93215145D01*
X138324262Y-93293166D01*
X138524221Y-93332940D01*
X138634800Y-93332940D01*
X138634800Y-93757800D01*
X138467761Y-93757800D01*
X138267802Y-93797574D01*
X138079444Y-93875595D01*
X137909926Y-93988863D01*
X137765763Y-94133026D01*
X137652495Y-94302544D01*
X137574474Y-94490902D01*
X137552100Y-94603385D01*
X137552100Y-91717394D01*
X137555655Y-91681299D01*
X137552100Y-91645204D01*
X137552100Y-91645195D01*
X137541465Y-91537215D01*
X137499437Y-91398667D01*
X137431187Y-91270980D01*
X137390060Y-91220867D01*
X137362353Y-91187106D01*
X137362350Y-91187103D01*
X137339337Y-91159062D01*
X137311297Y-91136050D01*
X133780959Y-87605713D01*
X133757938Y-87577662D01*
X133646020Y-87485813D01*
X133518333Y-87417563D01*
X133379785Y-87375535D01*
X133271805Y-87364900D01*
X133235700Y-87361344D01*
X133199595Y-87364900D01*
X118838711Y-87364900D01*
X118769774Y-87295963D01*
X118600256Y-87182695D01*
X118411898Y-87104674D01*
X118211939Y-87064900D01*
X118008061Y-87064900D01*
X117808102Y-87104674D01*
X117619744Y-87182695D01*
X117450226Y-87295963D01*
X117306063Y-87440126D01*
X117192795Y-87609644D01*
X117114774Y-87798002D01*
X117075000Y-87997961D01*
X117075000Y-88201839D01*
X117114774Y-88401798D01*
X117192795Y-88590156D01*
X117306063Y-88759674D01*
X117450226Y-88903837D01*
X117619744Y-89017105D01*
X117808102Y-89095126D01*
X118008061Y-89134900D01*
X118211939Y-89134900D01*
X118353160Y-89106810D01*
X118372074Y-89201898D01*
X118450095Y-89390256D01*
X118563363Y-89559774D01*
X118707526Y-89703937D01*
X118877044Y-89817205D01*
X119065402Y-89895226D01*
X119265361Y-89935000D01*
X119469239Y-89935000D01*
X119669198Y-89895226D01*
X119857556Y-89817205D01*
X120027074Y-89703937D01*
X120096011Y-89635000D01*
X132816954Y-89635000D01*
X135561401Y-92379448D01*
X135561400Y-95734595D01*
X135557844Y-95770700D01*
X135572035Y-95914785D01*
X135584784Y-95956813D01*
X135614063Y-96053332D01*
X135682313Y-96181019D01*
X135701255Y-96204100D01*
X134492647Y-96204100D01*
X134427900Y-96139354D01*
X134427900Y-92555605D01*
X134431456Y-92519500D01*
X134417265Y-92375415D01*
X134406144Y-92338753D01*
X134375237Y-92236867D01*
X134306987Y-92109180D01*
X134240774Y-92028500D01*
X134238153Y-92025306D01*
X134238150Y-92025303D01*
X134215137Y-91997262D01*
X134187097Y-91974250D01*
X132712158Y-90499312D01*
X132689138Y-90471262D01*
X132577220Y-90379413D01*
X132449533Y-90311163D01*
X132310985Y-90269135D01*
X132203005Y-90258500D01*
X132166900Y-90254944D01*
X132130795Y-90258500D01*
X109568111Y-90258500D01*
X109499174Y-90189563D01*
X109382202Y-90111405D01*
X109547285Y-90043025D01*
X109778222Y-89888718D01*
X109974618Y-89692322D01*
X110128925Y-89461385D01*
X110235214Y-89204782D01*
X110269628Y-89031774D01*
X110455084Y-89117263D01*
X110701981Y-89176528D01*
X110955696Y-89186488D01*
X111206479Y-89146759D01*
X111444693Y-89058868D01*
X111534307Y-89010968D01*
X111588182Y-88781887D01*
X113410618Y-88781887D01*
X113464493Y-89010968D01*
X113695084Y-89117263D01*
X113941981Y-89176528D01*
X114195696Y-89186488D01*
X114446479Y-89146759D01*
X114684693Y-89058868D01*
X114774307Y-89010968D01*
X114828182Y-88781887D01*
X114119400Y-88073105D01*
X113410618Y-88781887D01*
X111588182Y-88781887D01*
X110879400Y-88073105D01*
X110865258Y-88087248D01*
X110685653Y-87907643D01*
X110699795Y-87893500D01*
X111059005Y-87893500D01*
X111767787Y-88602282D01*
X111996868Y-88548407D01*
X112103163Y-88317816D01*
X112162428Y-88070919D01*
X112166397Y-87969796D01*
X112826412Y-87969796D01*
X112866141Y-88220579D01*
X112954032Y-88458793D01*
X113001932Y-88548407D01*
X113231013Y-88602282D01*
X113939795Y-87893500D01*
X114299005Y-87893500D01*
X115007787Y-88602282D01*
X115236868Y-88548407D01*
X115343163Y-88317816D01*
X115402428Y-88070919D01*
X115412388Y-87817204D01*
X115372659Y-87566421D01*
X115284768Y-87328207D01*
X115236868Y-87238593D01*
X115007787Y-87184718D01*
X114299005Y-87893500D01*
X113939795Y-87893500D01*
X113231013Y-87184718D01*
X113001932Y-87238593D01*
X112895637Y-87469184D01*
X112836372Y-87716081D01*
X112826412Y-87969796D01*
X112166397Y-87969796D01*
X112172388Y-87817204D01*
X112132659Y-87566421D01*
X112044768Y-87328207D01*
X111996868Y-87238593D01*
X111767787Y-87184718D01*
X111059005Y-87893500D01*
X110699795Y-87893500D01*
X109991013Y-87184718D01*
X109761932Y-87238593D01*
X109655637Y-87469184D01*
X109625189Y-87596029D01*
X109547285Y-87543975D01*
X109290682Y-87437686D01*
X109018273Y-87383500D01*
X108740527Y-87383500D01*
X108468118Y-87437686D01*
X108211515Y-87543975D01*
X108136992Y-87593770D01*
X108132659Y-87566421D01*
X108044768Y-87328207D01*
X107996868Y-87238593D01*
X107767787Y-87184718D01*
X107059005Y-87893500D01*
X107073148Y-87907643D01*
X106893543Y-88087248D01*
X106879400Y-88073105D01*
X106170618Y-88781887D01*
X105558182Y-88781887D01*
X104849400Y-88073105D01*
X104140618Y-88781887D01*
X102998548Y-88781887D01*
X102999454Y-87969796D01*
X103556412Y-87969796D01*
X103596141Y-88220579D01*
X103684032Y-88458793D01*
X103731932Y-88548407D01*
X103961013Y-88602282D01*
X104669795Y-87893500D01*
X105029005Y-87893500D01*
X105737787Y-88602282D01*
X105864400Y-88572505D01*
X105991013Y-88602282D01*
X106699795Y-87893500D01*
X105991013Y-87184718D01*
X105864400Y-87214495D01*
X105737787Y-87184718D01*
X105029005Y-87893500D01*
X104669795Y-87893500D01*
X103961013Y-87184718D01*
X103731932Y-87238593D01*
X103625637Y-87469184D01*
X103566372Y-87716081D01*
X103556412Y-87969796D01*
X102999454Y-87969796D01*
X103000530Y-87005113D01*
X104140618Y-87005113D01*
X104849400Y-87713895D01*
X105558182Y-87005113D01*
X106170618Y-87005113D01*
X106879400Y-87713895D01*
X107588182Y-87005113D01*
X110170618Y-87005113D01*
X110879400Y-87713895D01*
X111588182Y-87005113D01*
X113410618Y-87005113D01*
X114119400Y-87713895D01*
X114828182Y-87005113D01*
X114774307Y-86776032D01*
X114543716Y-86669737D01*
X114296819Y-86610472D01*
X114043104Y-86600512D01*
X113792321Y-86640241D01*
X113554107Y-86728132D01*
X113464493Y-86776032D01*
X113410618Y-87005113D01*
X111588182Y-87005113D01*
X111534307Y-86776032D01*
X111303716Y-86669737D01*
X111056819Y-86610472D01*
X110803104Y-86600512D01*
X110552321Y-86640241D01*
X110314107Y-86728132D01*
X110224493Y-86776032D01*
X110170618Y-87005113D01*
X107588182Y-87005113D01*
X107534307Y-86776032D01*
X107303716Y-86669737D01*
X107056819Y-86610472D01*
X106803104Y-86600512D01*
X106552321Y-86640241D01*
X106314107Y-86728132D01*
X106224493Y-86776032D01*
X106170618Y-87005113D01*
X105558182Y-87005113D01*
X105504307Y-86776032D01*
X105273716Y-86669737D01*
X105026819Y-86610472D01*
X104773104Y-86600512D01*
X104522321Y-86640241D01*
X104284107Y-86728132D01*
X104194493Y-86776032D01*
X104140618Y-87005113D01*
X103000530Y-87005113D01*
X103008308Y-80033260D01*
X103202456Y-80501976D01*
X103512712Y-80966307D01*
X103907593Y-81361188D01*
X104371924Y-81671444D01*
X104887861Y-81885152D01*
X105435577Y-81994100D01*
X105994023Y-81994100D01*
X106541739Y-81885152D01*
X107057676Y-81671444D01*
X107522007Y-81361188D01*
X107916888Y-80966307D01*
X108227144Y-80501976D01*
X108440852Y-79986039D01*
X108549800Y-79438323D01*
X108549800Y-78879877D01*
X108440852Y-78332161D01*
X108227144Y-77816224D01*
X107916888Y-77351893D01*
X107522007Y-76957012D01*
X107129914Y-76695024D01*
X138134115Y-76697330D01*
%TA.AperFunction,Conductor*%
D18*
G36*
X138134115Y-76697330D02*
G01*
X137745473Y-76957012D01*
X137350592Y-77351893D01*
X137040336Y-77816224D01*
X136826628Y-78332161D01*
X136717680Y-78879877D01*
X136717680Y-79438323D01*
X136826628Y-79986039D01*
X137040336Y-80501976D01*
X137350592Y-80966307D01*
X137745473Y-81361188D01*
X138209804Y-81671444D01*
X138725741Y-81885152D01*
X139273457Y-81994100D01*
X139831903Y-81994100D01*
X140379619Y-81885152D01*
X140895556Y-81671444D01*
X141359887Y-81361188D01*
X141754768Y-80966307D01*
X142065024Y-80501976D01*
X142088000Y-80446507D01*
X142088001Y-111948335D01*
X142065024Y-111892864D01*
X141754768Y-111428533D01*
X141359887Y-111033652D01*
X140895556Y-110723396D01*
X140379619Y-110509688D01*
X139831903Y-110400740D01*
X139273457Y-110400740D01*
X138725741Y-110509688D01*
X138209804Y-110723396D01*
X137745473Y-111033652D01*
X137350592Y-111428533D01*
X137040336Y-111892864D01*
X136826628Y-112408801D01*
X136717680Y-112956517D01*
X136717680Y-113514963D01*
X136826628Y-114062679D01*
X137040336Y-114578616D01*
X137350592Y-115042947D01*
X137745473Y-115437828D01*
X138209804Y-115748084D01*
X138479721Y-115859887D01*
X106793484Y-115857516D01*
X107057676Y-115748084D01*
X107522007Y-115437828D01*
X107916888Y-115042947D01*
X108227144Y-114578616D01*
X108440852Y-114062679D01*
X108549800Y-113514963D01*
X108549800Y-112956517D01*
X108440852Y-112408801D01*
X108227144Y-111892864D01*
X107916888Y-111428533D01*
X107522007Y-111033652D01*
X107057676Y-110723396D01*
X106541739Y-110509688D01*
X105994023Y-110400740D01*
X105435577Y-110400740D01*
X104887861Y-110509688D01*
X104371924Y-110723396D01*
X103907593Y-111033652D01*
X103512712Y-111428533D01*
X103202456Y-111892864D01*
X102988748Y-112408801D01*
X102972100Y-112492496D01*
X102978693Y-106581887D01*
X104140618Y-106581887D01*
X104194493Y-106810968D01*
X104425084Y-106917263D01*
X104671981Y-106976528D01*
X104925696Y-106986488D01*
X105176479Y-106946759D01*
X105414693Y-106858868D01*
X105504307Y-106810968D01*
X105558182Y-106581887D01*
X106170618Y-106581887D01*
X106224493Y-106810968D01*
X106455084Y-106917263D01*
X106701981Y-106976528D01*
X106955696Y-106986488D01*
X107206479Y-106946759D01*
X107444693Y-106858868D01*
X107534307Y-106810968D01*
X107588182Y-106581887D01*
X110170618Y-106581887D01*
X110224493Y-106810968D01*
X110455084Y-106917263D01*
X110701981Y-106976528D01*
X110955696Y-106986488D01*
X111206479Y-106946759D01*
X111444693Y-106858868D01*
X111534307Y-106810968D01*
X111588182Y-106581887D01*
X114410618Y-106581887D01*
X114464493Y-106810968D01*
X114695084Y-106917263D01*
X114941981Y-106976528D01*
X115195696Y-106986488D01*
X115446479Y-106946759D01*
X115684693Y-106858868D01*
X115774307Y-106810968D01*
X115828182Y-106581887D01*
X115119400Y-105873105D01*
X114410618Y-106581887D01*
X111588182Y-106581887D01*
X110879400Y-105873105D01*
X110170618Y-106581887D01*
X107588182Y-106581887D01*
X106879400Y-105873105D01*
X106170618Y-106581887D01*
X105558182Y-106581887D01*
X104849400Y-105873105D01*
X104140618Y-106581887D01*
X102978693Y-106581887D01*
X102979599Y-105769796D01*
X103556412Y-105769796D01*
X103596141Y-106020579D01*
X103684032Y-106258793D01*
X103731932Y-106348407D01*
X103961013Y-106402282D01*
X104669795Y-105693500D01*
X105029005Y-105693500D01*
X105737787Y-106402282D01*
X105864400Y-106372505D01*
X105991013Y-106402282D01*
X106699795Y-105693500D01*
X105991013Y-104984718D01*
X105864400Y-105014495D01*
X105737787Y-104984718D01*
X105029005Y-105693500D01*
X104669795Y-105693500D01*
X103961013Y-104984718D01*
X103731932Y-105038593D01*
X103625637Y-105269184D01*
X103566372Y-105516081D01*
X103556412Y-105769796D01*
X102979599Y-105769796D01*
X102980675Y-104805113D01*
X104140618Y-104805113D01*
X104849400Y-105513895D01*
X105558182Y-104805113D01*
X105504307Y-104576032D01*
X105273716Y-104469737D01*
X105026819Y-104410472D01*
X104773104Y-104400512D01*
X104522321Y-104440241D01*
X104284107Y-104528132D01*
X104194493Y-104576032D01*
X104140618Y-104805113D01*
X102980675Y-104805113D01*
X102998548Y-88781887D01*
X104140618Y-88781887D01*
X104194493Y-89010968D01*
X104425084Y-89117263D01*
X104671981Y-89176528D01*
X104925696Y-89186488D01*
X105176479Y-89146759D01*
X105414693Y-89058868D01*
X105504307Y-89010968D01*
X105558182Y-88781887D01*
X106170618Y-88781887D01*
X106224493Y-89010968D01*
X106455084Y-89117263D01*
X106701981Y-89176528D01*
X106955696Y-89186488D01*
X107206479Y-89146759D01*
X107444693Y-89058868D01*
X107489769Y-89034774D01*
X107523586Y-89204782D01*
X107629875Y-89461385D01*
X107784182Y-89692322D01*
X107980578Y-89888718D01*
X108211515Y-90043025D01*
X108327213Y-90090949D01*
X108179626Y-90189563D01*
X108035463Y-90333726D01*
X107922195Y-90503244D01*
X107844174Y-90691602D01*
X107830867Y-90758500D01*
X107687461Y-90758500D01*
X107487502Y-90798274D01*
X107299144Y-90876295D01*
X107129626Y-90989563D01*
X106985463Y-91133726D01*
X106872195Y-91303244D01*
X106794174Y-91491602D01*
X106754400Y-91691561D01*
X106754400Y-91895439D01*
X106794174Y-92095398D01*
X106872195Y-92283756D01*
X106985463Y-92453274D01*
X107129626Y-92597437D01*
X107144904Y-92607645D01*
X107016523Y-92736026D01*
X106903255Y-92905544D01*
X106825234Y-93093902D01*
X106785460Y-93293861D01*
X106785460Y-93497739D01*
X106825234Y-93697698D01*
X106903255Y-93886056D01*
X107016523Y-94055574D01*
X107085461Y-94124512D01*
X107085461Y-94703345D01*
X107081904Y-94739460D01*
X107096095Y-94883545D01*
X107124995Y-94978813D01*
X107138124Y-95022093D01*
X107206374Y-95149780D01*
X107298223Y-95261698D01*
X107326268Y-95284714D01*
X107519041Y-95477487D01*
X107542062Y-95505538D01*
X107622372Y-95571447D01*
X107487502Y-95598274D01*
X107299144Y-95676295D01*
X107129626Y-95789563D01*
X106985463Y-95933726D01*
X106872195Y-96103244D01*
X106794174Y-96291602D01*
X106754400Y-96491561D01*
X106754400Y-96695439D01*
X106794174Y-96895398D01*
X106872195Y-97083756D01*
X106985463Y-97253274D01*
X107125689Y-97393500D01*
X106985463Y-97533726D01*
X106872195Y-97703244D01*
X106794174Y-97891602D01*
X106754400Y-98091561D01*
X106754400Y-98295439D01*
X106794174Y-98495398D01*
X106872195Y-98683756D01*
X106985463Y-98853274D01*
X107129626Y-98997437D01*
X107130157Y-98997792D01*
X106993663Y-99134286D01*
X106880395Y-99303804D01*
X106802374Y-99492162D01*
X106762600Y-99692121D01*
X106762600Y-99895999D01*
X106802374Y-100095958D01*
X106880395Y-100284316D01*
X106993663Y-100453834D01*
X107137826Y-100597997D01*
X107307344Y-100711265D01*
X107495702Y-100789286D01*
X107695661Y-100829060D01*
X107780979Y-100829060D01*
X107794174Y-100895398D01*
X107872195Y-101083756D01*
X107985463Y-101253274D01*
X108125689Y-101393500D01*
X107985463Y-101533726D01*
X107872195Y-101703244D01*
X107794174Y-101891602D01*
X107780171Y-101962000D01*
X107670261Y-101962000D01*
X107470302Y-102001774D01*
X107281944Y-102079795D01*
X107112426Y-102193063D01*
X106968263Y-102337226D01*
X106854995Y-102506744D01*
X106776974Y-102695102D01*
X106737200Y-102895061D01*
X106737200Y-103098939D01*
X106776974Y-103298898D01*
X106854995Y-103487256D01*
X106968263Y-103656774D01*
X107112426Y-103800937D01*
X107281944Y-103914205D01*
X107470302Y-103992226D01*
X107670261Y-104032000D01*
X107692426Y-104032000D01*
X107629875Y-104125615D01*
X107523586Y-104382218D01*
X107489172Y-104555226D01*
X107303716Y-104469737D01*
X107056819Y-104410472D01*
X106803104Y-104400512D01*
X106552321Y-104440241D01*
X106314107Y-104528132D01*
X106224493Y-104576032D01*
X106170618Y-104805113D01*
X106879400Y-105513895D01*
X106893543Y-105499753D01*
X107073148Y-105679358D01*
X107059005Y-105693500D01*
X107767787Y-106402282D01*
X107996868Y-106348407D01*
X108103163Y-106117816D01*
X108133611Y-105990971D01*
X108211515Y-106043025D01*
X108468118Y-106149314D01*
X108740527Y-106203500D01*
X109018273Y-106203500D01*
X109290682Y-106149314D01*
X109547285Y-106043025D01*
X109621808Y-105993230D01*
X109626141Y-106020579D01*
X109714032Y-106258793D01*
X109761932Y-106348407D01*
X109991013Y-106402282D01*
X110699795Y-105693500D01*
X111059005Y-105693500D01*
X111767787Y-106402282D01*
X111996868Y-106348407D01*
X112103163Y-106117816D01*
X112162428Y-105870919D01*
X112166397Y-105769796D01*
X113826412Y-105769796D01*
X113866141Y-106020579D01*
X113954032Y-106258793D01*
X114001932Y-106348407D01*
X114231013Y-106402282D01*
X114939795Y-105693500D01*
X115299005Y-105693500D01*
X116007787Y-106402282D01*
X116236868Y-106348407D01*
X116343163Y-106117816D01*
X116402428Y-105870919D01*
X116412388Y-105617204D01*
X116372659Y-105366421D01*
X116284768Y-105128207D01*
X116236868Y-105038593D01*
X116007787Y-104984718D01*
X115299005Y-105693500D01*
X114939795Y-105693500D01*
X114231013Y-104984718D01*
X114001932Y-105038593D01*
X113895637Y-105269184D01*
X113836372Y-105516081D01*
X113826412Y-105769796D01*
X112166397Y-105769796D01*
X112172388Y-105617204D01*
X112132659Y-105366421D01*
X112044768Y-105128207D01*
X111996868Y-105038593D01*
X111767787Y-104984718D01*
X111059005Y-105693500D01*
X110699795Y-105693500D01*
X110685653Y-105679358D01*
X110865258Y-105499753D01*
X110879400Y-105513895D01*
X111588182Y-104805113D01*
X114410618Y-104805113D01*
X115119400Y-105513895D01*
X115828182Y-104805113D01*
X115774307Y-104576032D01*
X115543716Y-104469737D01*
X115296819Y-104410472D01*
X115043104Y-104400512D01*
X114792321Y-104440241D01*
X114554107Y-104528132D01*
X114464493Y-104576032D01*
X114410618Y-104805113D01*
X111588182Y-104805113D01*
X111534307Y-104576032D01*
X111303716Y-104469737D01*
X111056819Y-104410472D01*
X110803104Y-104400512D01*
X110552321Y-104440241D01*
X110314107Y-104528132D01*
X110269031Y-104552226D01*
X110235214Y-104382218D01*
X110128925Y-104125615D01*
X109974618Y-103894678D01*
X109811940Y-103732000D01*
X114986154Y-103732000D01*
X115818496Y-104564343D01*
X115841512Y-104592388D01*
X115953430Y-104684237D01*
X116081117Y-104752487D01*
X116219665Y-104794515D01*
X116327645Y-104805150D01*
X116327654Y-104805150D01*
X116363749Y-104808705D01*
X116399844Y-104805150D01*
X134298145Y-104805150D01*
X134334250Y-104808706D01*
X134370355Y-104805150D01*
X134478335Y-104794515D01*
X134616883Y-104752487D01*
X134744570Y-104684237D01*
X134856488Y-104592388D01*
X134879508Y-104564338D01*
X135097241Y-104346605D01*
X135153364Y-104384105D01*
X135341722Y-104462126D01*
X135541681Y-104501900D01*
X135745559Y-104501900D01*
X135945518Y-104462126D01*
X136133876Y-104384105D01*
X136303394Y-104270837D01*
X136447557Y-104126674D01*
X136560825Y-103957156D01*
X136638846Y-103768798D01*
X136678620Y-103568839D01*
X136678620Y-103364961D01*
X136638846Y-103165002D01*
X136560825Y-102976644D01*
X136447557Y-102807126D01*
X136303394Y-102662963D01*
X136133876Y-102549695D01*
X135945518Y-102471674D01*
X135745559Y-102431900D01*
X135541681Y-102431900D01*
X135341722Y-102471674D01*
X135153364Y-102549695D01*
X134983846Y-102662963D01*
X134916384Y-102730425D01*
X134901404Y-102731900D01*
X134901395Y-102731900D01*
X134880844Y-102733924D01*
X134809257Y-102626786D01*
X134665094Y-102482623D01*
X134495576Y-102369355D01*
X134307218Y-102291334D01*
X134107259Y-102251560D01*
X133903381Y-102251560D01*
X133703422Y-102291334D01*
X133515064Y-102369355D01*
X133345546Y-102482623D01*
X133276609Y-102551560D01*
X116856705Y-102551560D01*
X116004456Y-101699312D01*
X115981436Y-101671262D01*
X115869518Y-101579413D01*
X115741831Y-101511163D01*
X115603283Y-101469135D01*
X115495303Y-101458500D01*
X115459198Y-101454944D01*
X115423093Y-101458500D01*
X109518111Y-101458500D01*
X109453111Y-101393500D01*
X109518111Y-101328500D01*
X132432754Y-101328500D01*
X132611701Y-101507447D01*
X132634722Y-101535498D01*
X132746640Y-101627347D01*
X132874327Y-101695597D01*
X133012875Y-101737625D01*
X133120855Y-101748260D01*
X133120864Y-101748260D01*
X133156959Y-101751815D01*
X133193054Y-101748260D01*
X133964949Y-101748260D01*
X134036426Y-101819737D01*
X134205944Y-101933005D01*
X134394302Y-102011026D01*
X134594261Y-102050800D01*
X134798139Y-102050800D01*
X134998098Y-102011026D01*
X135186456Y-101933005D01*
X135355974Y-101819737D01*
X135500137Y-101675574D01*
X135613405Y-101506056D01*
X135691426Y-101317698D01*
X135731200Y-101117739D01*
X135731200Y-100913861D01*
X135691426Y-100713902D01*
X135613405Y-100525544D01*
X135500137Y-100356026D01*
X135355974Y-100211863D01*
X135186456Y-100098595D01*
X134998098Y-100020574D01*
X134798139Y-99980800D01*
X134719274Y-99980800D01*
X134713526Y-99951902D01*
X134635505Y-99763544D01*
X134522237Y-99594026D01*
X134378074Y-99449863D01*
X134208556Y-99336595D01*
X134020198Y-99258574D01*
X133820239Y-99218800D01*
X133616361Y-99218800D01*
X133416402Y-99258574D01*
X133228044Y-99336595D01*
X133183438Y-99366400D01*
X109796226Y-99366400D01*
X109729699Y-99299873D01*
X109706678Y-99271822D01*
X109594760Y-99179973D01*
X109467073Y-99111723D01*
X109328525Y-99069695D01*
X109220545Y-99059060D01*
X109184440Y-99055504D01*
X109148335Y-99059060D01*
X108526311Y-99059060D01*
X108457374Y-98990123D01*
X108456843Y-98989768D01*
X108518111Y-98928500D01*
X125912789Y-98928500D01*
X125984626Y-99000337D01*
X126154144Y-99113605D01*
X126342502Y-99191626D01*
X126542461Y-99231400D01*
X126746339Y-99231400D01*
X126946298Y-99191626D01*
X127134656Y-99113605D01*
X127304174Y-99000337D01*
X127448337Y-98856174D01*
X127561605Y-98686656D01*
X127639626Y-98498298D01*
X127679400Y-98298339D01*
X127679400Y-98128500D01*
X128821189Y-98128500D01*
X128892926Y-98200237D01*
X129062444Y-98313505D01*
X129250802Y-98391526D01*
X129450761Y-98431300D01*
X129654639Y-98431300D01*
X129854598Y-98391526D01*
X130042956Y-98313505D01*
X130212474Y-98200237D01*
X130356637Y-98056074D01*
X130469905Y-97886556D01*
X130547926Y-97698198D01*
X130587700Y-97498239D01*
X130587700Y-97323687D01*
X130624544Y-97348305D01*
X130812902Y-97426326D01*
X131012861Y-97466100D01*
X131216739Y-97466100D01*
X131416698Y-97426326D01*
X131605056Y-97348305D01*
X131774574Y-97235037D01*
X131918737Y-97090874D01*
X132032005Y-96921356D01*
X132110026Y-96732998D01*
X132134585Y-96609531D01*
X132242198Y-96588126D01*
X132411801Y-96517874D01*
X132411801Y-96636285D01*
X132408244Y-96672400D01*
X132422435Y-96816485D01*
X132451281Y-96911574D01*
X132464464Y-96955033D01*
X132532714Y-97082720D01*
X132624563Y-97194638D01*
X132652608Y-97217654D01*
X133350846Y-97915893D01*
X133373862Y-97943938D01*
X133485780Y-98035787D01*
X133613467Y-98104037D01*
X133752015Y-98146065D01*
X133859995Y-98156700D01*
X133860004Y-98156700D01*
X133896099Y-98160255D01*
X133932194Y-98156700D01*
X137735909Y-98156700D01*
X137697260Y-98351001D01*
X137697260Y-98554879D01*
X137737034Y-98754838D01*
X137815055Y-98943196D01*
X137928323Y-99112714D01*
X138072486Y-99256877D01*
X138203439Y-99344377D01*
X138130244Y-99374695D01*
X137960726Y-99487963D01*
X137816563Y-99632126D01*
X137703295Y-99801644D01*
X137625274Y-99990002D01*
X137585500Y-100189961D01*
X137585500Y-100393839D01*
X137625274Y-100593798D01*
X137703295Y-100782156D01*
X137816563Y-100951674D01*
X137960726Y-101095837D01*
X138130244Y-101209105D01*
X138296700Y-101278054D01*
X138296700Y-101447939D01*
X138336474Y-101647898D01*
X138414495Y-101836256D01*
X138527763Y-102005774D01*
X138671926Y-102149937D01*
X138841444Y-102263205D01*
X139029802Y-102341226D01*
X139229761Y-102381000D01*
X139433639Y-102381000D01*
X139633598Y-102341226D01*
X139821956Y-102263205D01*
X139991474Y-102149937D01*
X140135637Y-102005774D01*
X140248905Y-101836256D01*
X140326926Y-101647898D01*
X140366700Y-101447939D01*
X140366700Y-101350446D01*
X141203803Y-100513344D01*
X141231848Y-100490328D01*
X141323697Y-100378410D01*
X141391947Y-100250723D01*
X141433975Y-100112175D01*
X141437470Y-100076693D01*
X141448166Y-99968091D01*
X141444610Y-99931986D01*
X141444610Y-97469905D01*
X141448165Y-97433810D01*
X141444610Y-97397715D01*
X141444610Y-97397706D01*
X141433975Y-97289726D01*
X141422409Y-97251599D01*
X141414965Y-97176015D01*
X141372937Y-97037467D01*
X141304687Y-96909780D01*
X141276254Y-96875135D01*
X141235853Y-96825906D01*
X141235850Y-96825903D01*
X141212837Y-96797862D01*
X141184797Y-96774850D01*
X139743039Y-95333093D01*
X139765038Y-95315038D01*
X139788059Y-95286987D01*
X139863992Y-95211054D01*
X139892037Y-95188038D01*
X139983887Y-95076120D01*
X140052137Y-94948433D01*
X140094165Y-94809885D01*
X140104800Y-94701905D01*
X140104800Y-94701898D01*
X140108355Y-94665801D01*
X140104800Y-94629704D01*
X140104800Y-90307705D01*
X140108356Y-90271600D01*
X140094165Y-90127515D01*
X140052137Y-89988966D01*
X139983887Y-89861280D01*
X139915053Y-89777406D01*
X139892038Y-89749362D01*
X139863993Y-89726346D01*
X135139859Y-85002213D01*
X135116838Y-84974162D01*
X135004920Y-84882313D01*
X134877233Y-84814063D01*
X134738685Y-84772035D01*
X134630705Y-84761400D01*
X134594600Y-84757844D01*
X134558495Y-84761400D01*
X124345347Y-84761400D01*
X123788000Y-84204054D01*
X123788000Y-83273057D01*
X123807494Y-83262637D01*
X123904185Y-83183285D01*
X123983537Y-83086594D01*
X124042502Y-82976280D01*
X124078812Y-82856582D01*
X124091072Y-82732100D01*
X124091072Y-81132100D01*
X124078812Y-81007618D01*
X124053614Y-80924552D01*
X124101815Y-80983285D01*
X124198506Y-81062637D01*
X124308820Y-81121602D01*
X124428518Y-81157912D01*
X124553000Y-81170172D01*
X126653000Y-81170172D01*
X126777482Y-81157912D01*
X126897180Y-81121602D01*
X127007494Y-81062637D01*
X127104185Y-80983285D01*
X127183537Y-80886594D01*
X127242502Y-80776280D01*
X127278812Y-80656582D01*
X127291072Y-80532100D01*
X127291072Y-77532100D01*
X127278812Y-77407618D01*
X127242502Y-77287920D01*
X127183537Y-77177606D01*
X127104185Y-77080915D01*
X127007494Y-77001563D01*
X126897180Y-76942598D01*
X126777482Y-76906288D01*
X126653000Y-76894028D01*
X124553000Y-76894028D01*
X124428518Y-76906288D01*
X124308820Y-76942598D01*
X124198506Y-77001563D01*
X124101815Y-77080915D01*
X124022463Y-77177606D01*
X123963498Y-77287920D01*
X123927188Y-77407618D01*
X123914928Y-77532100D01*
X123914928Y-80532100D01*
X123927188Y-80656582D01*
X123952386Y-80739648D01*
X123904185Y-80680915D01*
X123807494Y-80601563D01*
X123697180Y-80542598D01*
X123577482Y-80506288D01*
X123453000Y-80494028D01*
X122653000Y-80494028D01*
X122528518Y-80506288D01*
X122428000Y-80536780D01*
X122327482Y-80506288D01*
X122203000Y-80494028D01*
X121403000Y-80494028D01*
X121278518Y-80506288D01*
X121158820Y-80542598D01*
X121048506Y-80601563D01*
X120951815Y-80680915D01*
X120903614Y-80739648D01*
X120928812Y-80656582D01*
X120941072Y-80532100D01*
X120941072Y-77532100D01*
X120928812Y-77407618D01*
X120892502Y-77287920D01*
X120833537Y-77177606D01*
X120754185Y-77080915D01*
X120657494Y-77001563D01*
X120547180Y-76942598D01*
X120427482Y-76906288D01*
X120303000Y-76894028D01*
X118203000Y-76894028D01*
X118078518Y-76906288D01*
X117958820Y-76942598D01*
X117848506Y-77001563D01*
X117751815Y-77080915D01*
X117672463Y-77177606D01*
X117613498Y-77287920D01*
X117577188Y-77407618D01*
X117564928Y-77532100D01*
X117564928Y-80532100D01*
X117577188Y-80656582D01*
X117613498Y-80776280D01*
X117672463Y-80886594D01*
X117751815Y-80983285D01*
X117848506Y-81062637D01*
X117958820Y-81121602D01*
X118078518Y-81157912D01*
X118203000Y-81170172D01*
X120303000Y-81170172D01*
X120427482Y-81157912D01*
X120547180Y-81121602D01*
X120657494Y-81062637D01*
X120754185Y-80983285D01*
X120802386Y-80924552D01*
X120777188Y-81007618D01*
X120764928Y-81132100D01*
X120764928Y-82732100D01*
X120777188Y-82856582D01*
X120813498Y-82976280D01*
X120872463Y-83086594D01*
X120951815Y-83183285D01*
X121048506Y-83262637D01*
X121068000Y-83273057D01*
X121068000Y-84505095D01*
X121064444Y-84541200D01*
X121070049Y-84598110D01*
X121078635Y-84685284D01*
X121120663Y-84823832D01*
X121188913Y-84951519D01*
X121280762Y-85063437D01*
X121308808Y-85086454D01*
X122974946Y-86752593D01*
X122997962Y-86780638D01*
X123026006Y-86803653D01*
X123109880Y-86872487D01*
X123237566Y-86940737D01*
X123376115Y-86982765D01*
X123520200Y-86996956D01*
X123556305Y-86993400D01*
X133959954Y-86993400D01*
X137891161Y-90924608D01*
X137891160Y-91569229D01*
X137822223Y-91638166D01*
X137708955Y-91807684D01*
X137630934Y-91996042D01*
X137591160Y-92196001D01*
X137591160Y-92399879D01*
X137630934Y-92599838D01*
X137708955Y-92788196D01*
X137822223Y-92957714D01*
X137966386Y-93101877D01*
X138135904Y-93215145D01*
X138324262Y-93293166D01*
X138524221Y-93332940D01*
X138634800Y-93332940D01*
X138634800Y-93757800D01*
X138467761Y-93757800D01*
X138267802Y-93797574D01*
X138079444Y-93875595D01*
X137909926Y-93988863D01*
X137765763Y-94133026D01*
X137652495Y-94302544D01*
X137574474Y-94490902D01*
X137552100Y-94603385D01*
X137552100Y-91717394D01*
X137555655Y-91681299D01*
X137552100Y-91645204D01*
X137552100Y-91645195D01*
X137541465Y-91537215D01*
X137499437Y-91398667D01*
X137431187Y-91270980D01*
X137390060Y-91220867D01*
X137362353Y-91187106D01*
X137362350Y-91187103D01*
X137339337Y-91159062D01*
X137311297Y-91136050D01*
X133780959Y-87605713D01*
X133757938Y-87577662D01*
X133646020Y-87485813D01*
X133518333Y-87417563D01*
X133379785Y-87375535D01*
X133271805Y-87364900D01*
X133235700Y-87361344D01*
X133199595Y-87364900D01*
X118838711Y-87364900D01*
X118769774Y-87295963D01*
X118600256Y-87182695D01*
X118411898Y-87104674D01*
X118211939Y-87064900D01*
X118008061Y-87064900D01*
X117808102Y-87104674D01*
X117619744Y-87182695D01*
X117450226Y-87295963D01*
X117306063Y-87440126D01*
X117192795Y-87609644D01*
X117114774Y-87798002D01*
X117075000Y-87997961D01*
X117075000Y-88201839D01*
X117114774Y-88401798D01*
X117192795Y-88590156D01*
X117306063Y-88759674D01*
X117450226Y-88903837D01*
X117619744Y-89017105D01*
X117808102Y-89095126D01*
X118008061Y-89134900D01*
X118211939Y-89134900D01*
X118353160Y-89106810D01*
X118372074Y-89201898D01*
X118450095Y-89390256D01*
X118563363Y-89559774D01*
X118707526Y-89703937D01*
X118877044Y-89817205D01*
X119065402Y-89895226D01*
X119265361Y-89935000D01*
X119469239Y-89935000D01*
X119669198Y-89895226D01*
X119857556Y-89817205D01*
X120027074Y-89703937D01*
X120096011Y-89635000D01*
X132816954Y-89635000D01*
X135561401Y-92379448D01*
X135561400Y-95734595D01*
X135557844Y-95770700D01*
X135572035Y-95914785D01*
X135584784Y-95956813D01*
X135614063Y-96053332D01*
X135682313Y-96181019D01*
X135701255Y-96204100D01*
X134492647Y-96204100D01*
X134427900Y-96139354D01*
X134427900Y-92555605D01*
X134431456Y-92519500D01*
X134417265Y-92375415D01*
X134406144Y-92338753D01*
X134375237Y-92236867D01*
X134306987Y-92109180D01*
X134240774Y-92028500D01*
X134238153Y-92025306D01*
X134238150Y-92025303D01*
X134215137Y-91997262D01*
X134187097Y-91974250D01*
X132712158Y-90499312D01*
X132689138Y-90471262D01*
X132577220Y-90379413D01*
X132449533Y-90311163D01*
X132310985Y-90269135D01*
X132203005Y-90258500D01*
X132166900Y-90254944D01*
X132130795Y-90258500D01*
X109568111Y-90258500D01*
X109499174Y-90189563D01*
X109382202Y-90111405D01*
X109547285Y-90043025D01*
X109778222Y-89888718D01*
X109974618Y-89692322D01*
X110128925Y-89461385D01*
X110235214Y-89204782D01*
X110269628Y-89031774D01*
X110455084Y-89117263D01*
X110701981Y-89176528D01*
X110955696Y-89186488D01*
X111206479Y-89146759D01*
X111444693Y-89058868D01*
X111534307Y-89010968D01*
X111588182Y-88781887D01*
X113410618Y-88781887D01*
X113464493Y-89010968D01*
X113695084Y-89117263D01*
X113941981Y-89176528D01*
X114195696Y-89186488D01*
X114446479Y-89146759D01*
X114684693Y-89058868D01*
X114774307Y-89010968D01*
X114828182Y-88781887D01*
X114119400Y-88073105D01*
X113410618Y-88781887D01*
X111588182Y-88781887D01*
X110879400Y-88073105D01*
X110865258Y-88087248D01*
X110685653Y-87907643D01*
X110699795Y-87893500D01*
X111059005Y-87893500D01*
X111767787Y-88602282D01*
X111996868Y-88548407D01*
X112103163Y-88317816D01*
X112162428Y-88070919D01*
X112166397Y-87969796D01*
X112826412Y-87969796D01*
X112866141Y-88220579D01*
X112954032Y-88458793D01*
X113001932Y-88548407D01*
X113231013Y-88602282D01*
X113939795Y-87893500D01*
X114299005Y-87893500D01*
X115007787Y-88602282D01*
X115236868Y-88548407D01*
X115343163Y-88317816D01*
X115402428Y-88070919D01*
X115412388Y-87817204D01*
X115372659Y-87566421D01*
X115284768Y-87328207D01*
X115236868Y-87238593D01*
X115007787Y-87184718D01*
X114299005Y-87893500D01*
X113939795Y-87893500D01*
X113231013Y-87184718D01*
X113001932Y-87238593D01*
X112895637Y-87469184D01*
X112836372Y-87716081D01*
X112826412Y-87969796D01*
X112166397Y-87969796D01*
X112172388Y-87817204D01*
X112132659Y-87566421D01*
X112044768Y-87328207D01*
X111996868Y-87238593D01*
X111767787Y-87184718D01*
X111059005Y-87893500D01*
X110699795Y-87893500D01*
X109991013Y-87184718D01*
X109761932Y-87238593D01*
X109655637Y-87469184D01*
X109625189Y-87596029D01*
X109547285Y-87543975D01*
X109290682Y-87437686D01*
X109018273Y-87383500D01*
X108740527Y-87383500D01*
X108468118Y-87437686D01*
X108211515Y-87543975D01*
X108136992Y-87593770D01*
X108132659Y-87566421D01*
X108044768Y-87328207D01*
X107996868Y-87238593D01*
X107767787Y-87184718D01*
X107059005Y-87893500D01*
X107073148Y-87907643D01*
X106893543Y-88087248D01*
X106879400Y-88073105D01*
X106170618Y-88781887D01*
X105558182Y-88781887D01*
X104849400Y-88073105D01*
X104140618Y-88781887D01*
X102998548Y-88781887D01*
X102999454Y-87969796D01*
X103556412Y-87969796D01*
X103596141Y-88220579D01*
X103684032Y-88458793D01*
X103731932Y-88548407D01*
X103961013Y-88602282D01*
X104669795Y-87893500D01*
X105029005Y-87893500D01*
X105737787Y-88602282D01*
X105864400Y-88572505D01*
X105991013Y-88602282D01*
X106699795Y-87893500D01*
X105991013Y-87184718D01*
X105864400Y-87214495D01*
X105737787Y-87184718D01*
X105029005Y-87893500D01*
X104669795Y-87893500D01*
X103961013Y-87184718D01*
X103731932Y-87238593D01*
X103625637Y-87469184D01*
X103566372Y-87716081D01*
X103556412Y-87969796D01*
X102999454Y-87969796D01*
X103000530Y-87005113D01*
X104140618Y-87005113D01*
X104849400Y-87713895D01*
X105558182Y-87005113D01*
X106170618Y-87005113D01*
X106879400Y-87713895D01*
X107588182Y-87005113D01*
X110170618Y-87005113D01*
X110879400Y-87713895D01*
X111588182Y-87005113D01*
X113410618Y-87005113D01*
X114119400Y-87713895D01*
X114828182Y-87005113D01*
X114774307Y-86776032D01*
X114543716Y-86669737D01*
X114296819Y-86610472D01*
X114043104Y-86600512D01*
X113792321Y-86640241D01*
X113554107Y-86728132D01*
X113464493Y-86776032D01*
X113410618Y-87005113D01*
X111588182Y-87005113D01*
X111534307Y-86776032D01*
X111303716Y-86669737D01*
X111056819Y-86610472D01*
X110803104Y-86600512D01*
X110552321Y-86640241D01*
X110314107Y-86728132D01*
X110224493Y-86776032D01*
X110170618Y-87005113D01*
X107588182Y-87005113D01*
X107534307Y-86776032D01*
X107303716Y-86669737D01*
X107056819Y-86610472D01*
X106803104Y-86600512D01*
X106552321Y-86640241D01*
X106314107Y-86728132D01*
X106224493Y-86776032D01*
X106170618Y-87005113D01*
X105558182Y-87005113D01*
X105504307Y-86776032D01*
X105273716Y-86669737D01*
X105026819Y-86610472D01*
X104773104Y-86600512D01*
X104522321Y-86640241D01*
X104284107Y-86728132D01*
X104194493Y-86776032D01*
X104140618Y-87005113D01*
X103000530Y-87005113D01*
X103008308Y-80033260D01*
X103202456Y-80501976D01*
X103512712Y-80966307D01*
X103907593Y-81361188D01*
X104371924Y-81671444D01*
X104887861Y-81885152D01*
X105435577Y-81994100D01*
X105994023Y-81994100D01*
X106541739Y-81885152D01*
X107057676Y-81671444D01*
X107522007Y-81361188D01*
X107916888Y-80966307D01*
X108227144Y-80501976D01*
X108440852Y-79986039D01*
X108549800Y-79438323D01*
X108549800Y-78879877D01*
X108440852Y-78332161D01*
X108227144Y-77816224D01*
X107916888Y-77351893D01*
X107522007Y-76957012D01*
X107129914Y-76695024D01*
X138134115Y-76697330D01*
G37*
%TD.AperFunction*%
D17*
X132411800Y-93027147D02*
X132411800Y-94667926D01*
X132242198Y-94597674D01*
X132042239Y-94557900D01*
X131838361Y-94557900D01*
X131638402Y-94597674D01*
X131461073Y-94671127D01*
X130489258Y-93699312D01*
X130466238Y-93671262D01*
X130354320Y-93579413D01*
X130226633Y-93511163D01*
X130088085Y-93469135D01*
X129980105Y-93458500D01*
X129944000Y-93454944D01*
X129907895Y-93458500D01*
X109518111Y-93458500D01*
X109449174Y-93389563D01*
X109279656Y-93276295D01*
X109091298Y-93198274D01*
X108891339Y-93158500D01*
X108828535Y-93158500D01*
X108815686Y-93093902D01*
X108737665Y-92905544D01*
X108624397Y-92736026D01*
X108480234Y-92591863D01*
X108464956Y-92581655D01*
X108518111Y-92528500D01*
X109109795Y-92528500D01*
X109145900Y-92532056D01*
X109182005Y-92528500D01*
X109289985Y-92517865D01*
X109428533Y-92475837D01*
X109556220Y-92407587D01*
X109668138Y-92315738D01*
X109691159Y-92287687D01*
X109740346Y-92238500D01*
X131623154Y-92238500D01*
X132411800Y-93027147D01*
%TA.AperFunction,Conductor*%
D18*
G36*
X132411800Y-93027147D02*
G01*
X132411800Y-94667926D01*
X132242198Y-94597674D01*
X132042239Y-94557900D01*
X131838361Y-94557900D01*
X131638402Y-94597674D01*
X131461073Y-94671127D01*
X130489258Y-93699312D01*
X130466238Y-93671262D01*
X130354320Y-93579413D01*
X130226633Y-93511163D01*
X130088085Y-93469135D01*
X129980105Y-93458500D01*
X129944000Y-93454944D01*
X129907895Y-93458500D01*
X109518111Y-93458500D01*
X109449174Y-93389563D01*
X109279656Y-93276295D01*
X109091298Y-93198274D01*
X108891339Y-93158500D01*
X108828535Y-93158500D01*
X108815686Y-93093902D01*
X108737665Y-92905544D01*
X108624397Y-92736026D01*
X108480234Y-92591863D01*
X108464956Y-92581655D01*
X108518111Y-92528500D01*
X109109795Y-92528500D01*
X109145900Y-92532056D01*
X109182005Y-92528500D01*
X109289985Y-92517865D01*
X109428533Y-92475837D01*
X109556220Y-92407587D01*
X109668138Y-92315738D01*
X109691159Y-92287687D01*
X109740346Y-92238500D01*
X131623154Y-92238500D01*
X132411800Y-93027147D01*
G37*
%TD.AperFunction*%
%TD*%
M02*
