%TF.GenerationSoftware,KiCad,Pcbnew,5.1.10-88a1d61d58~88~ubuntu18.04.1*%
%TF.CreationDate,2021-11-12T09:48:00+07:00*%
%TF.ProjectId,MX8Mx_EVK_MIPI_CSI-EYECLOUDAI_2MGSMOD_AR0234-ADAPTER,4d58384d-785f-4455-964b-5f4d4950495f,rev?*%
%TF.SameCoordinates,Original*%
%TF.FileFunction,Legend,Top*%
%TF.FilePolarity,Positive*%
%FSLAX46Y46*%
G04 Gerber Fmt 4.6, Leading zero omitted, Abs format (unit mm)*
G04 Created by KiCad (PCBNEW 5.1.10-88a1d61d58~88~ubuntu18.04.1) date 2021-11-12 09:48:00*
%MOMM*%
%LPD*%
G01*
G04 APERTURE LIST*
%ADD10C,0.150000*%
%ADD11C,0.120000*%
%ADD12C,0.200000*%
%ADD13C,0.127000*%
%ADD14C,0.254000*%
G04 APERTURE END LIST*
D10*
X111193631Y-112962180D02*
X111193631Y-111962180D01*
X111393631Y-112676466D01*
X111593631Y-111962180D01*
X111593631Y-112962180D01*
X111822202Y-111962180D02*
X112222202Y-112962180D01*
X112222202Y-111962180D02*
X111822202Y-112962180D01*
X112536488Y-112390752D02*
X112479345Y-112343133D01*
X112450774Y-112295514D01*
X112422202Y-112200276D01*
X112422202Y-112152657D01*
X112450774Y-112057419D01*
X112479345Y-112009800D01*
X112536488Y-111962180D01*
X112650774Y-111962180D01*
X112707917Y-112009800D01*
X112736488Y-112057419D01*
X112765060Y-112152657D01*
X112765060Y-112200276D01*
X112736488Y-112295514D01*
X112707917Y-112343133D01*
X112650774Y-112390752D01*
X112536488Y-112390752D01*
X112479345Y-112438371D01*
X112450774Y-112485990D01*
X112422202Y-112581228D01*
X112422202Y-112771704D01*
X112450774Y-112866942D01*
X112479345Y-112914561D01*
X112536488Y-112962180D01*
X112650774Y-112962180D01*
X112707917Y-112914561D01*
X112736488Y-112866942D01*
X112765060Y-112771704D01*
X112765060Y-112581228D01*
X112736488Y-112485990D01*
X112707917Y-112438371D01*
X112650774Y-112390752D01*
X113022202Y-112962180D02*
X113022202Y-111962180D01*
X113222202Y-112676466D01*
X113422202Y-111962180D01*
X113422202Y-112962180D01*
X113650774Y-112962180D02*
X113965060Y-112295514D01*
X113650774Y-112295514D02*
X113965060Y-112962180D01*
X114050774Y-113057419D02*
X114507917Y-113057419D01*
X114650774Y-112438371D02*
X114850774Y-112438371D01*
X114936488Y-112962180D02*
X114650774Y-112962180D01*
X114650774Y-111962180D01*
X114936488Y-111962180D01*
X115107917Y-111962180D02*
X115307917Y-112962180D01*
X115507917Y-111962180D01*
X115707917Y-112962180D02*
X115707917Y-111962180D01*
X116050774Y-112962180D02*
X115793631Y-112390752D01*
X116050774Y-111962180D02*
X115707917Y-112533609D01*
X116765060Y-112581228D02*
X117222202Y-112581228D01*
X117965060Y-112438371D02*
X118165060Y-112438371D01*
X118250774Y-112962180D02*
X117965060Y-112962180D01*
X117965060Y-111962180D01*
X118250774Y-111962180D01*
X118622202Y-112485990D02*
X118622202Y-112962180D01*
X118422202Y-111962180D02*
X118622202Y-112485990D01*
X118822202Y-111962180D01*
X119022202Y-112438371D02*
X119222202Y-112438371D01*
X119307917Y-112962180D02*
X119022202Y-112962180D01*
X119022202Y-111962180D01*
X119307917Y-111962180D01*
X119907917Y-112866942D02*
X119879345Y-112914561D01*
X119793631Y-112962180D01*
X119736488Y-112962180D01*
X119650774Y-112914561D01*
X119593631Y-112819323D01*
X119565060Y-112724085D01*
X119536488Y-112533609D01*
X119536488Y-112390752D01*
X119565060Y-112200276D01*
X119593631Y-112105038D01*
X119650774Y-112009800D01*
X119736488Y-111962180D01*
X119793631Y-111962180D01*
X119879345Y-112009800D01*
X119907917Y-112057419D01*
X120450774Y-112962180D02*
X120165060Y-112962180D01*
X120165060Y-111962180D01*
X120765060Y-111962180D02*
X120879345Y-111962180D01*
X120936488Y-112009800D01*
X120993631Y-112105038D01*
X121022202Y-112295514D01*
X121022202Y-112628847D01*
X120993631Y-112819323D01*
X120936488Y-112914561D01*
X120879345Y-112962180D01*
X120765060Y-112962180D01*
X120707917Y-112914561D01*
X120650774Y-112819323D01*
X120622202Y-112628847D01*
X120622202Y-112295514D01*
X120650774Y-112105038D01*
X120707917Y-112009800D01*
X120765060Y-111962180D01*
X121279345Y-111962180D02*
X121279345Y-112771704D01*
X121307917Y-112866942D01*
X121336488Y-112914561D01*
X121393631Y-112962180D01*
X121507917Y-112962180D01*
X121565060Y-112914561D01*
X121593631Y-112866942D01*
X121622202Y-112771704D01*
X121622202Y-111962180D01*
X121907917Y-112962180D02*
X121907917Y-111962180D01*
X122050774Y-111962180D01*
X122136488Y-112009800D01*
X122193631Y-112105038D01*
X122222202Y-112200276D01*
X122250774Y-112390752D01*
X122250774Y-112533609D01*
X122222202Y-112724085D01*
X122193631Y-112819323D01*
X122136488Y-112914561D01*
X122050774Y-112962180D01*
X121907917Y-112962180D01*
X122479345Y-112676466D02*
X122765060Y-112676466D01*
X122422202Y-112962180D02*
X122622202Y-111962180D01*
X122822202Y-112962180D01*
X123022202Y-112962180D02*
X123022202Y-111962180D01*
X123165060Y-113057419D02*
X123622202Y-113057419D01*
X123736488Y-112676466D02*
X124022202Y-112676466D01*
X123679345Y-112962180D02*
X123879345Y-111962180D01*
X124079345Y-112962180D01*
X124622202Y-112962180D02*
X124422202Y-112485990D01*
X124279345Y-112962180D02*
X124279345Y-111962180D01*
X124507917Y-111962180D01*
X124565060Y-112009800D01*
X124593631Y-112057419D01*
X124622202Y-112152657D01*
X124622202Y-112295514D01*
X124593631Y-112390752D01*
X124565060Y-112438371D01*
X124507917Y-112485990D01*
X124279345Y-112485990D01*
X124993631Y-111962180D02*
X125050774Y-111962180D01*
X125107917Y-112009800D01*
X125136488Y-112057419D01*
X125165060Y-112152657D01*
X125193631Y-112343133D01*
X125193631Y-112581228D01*
X125165060Y-112771704D01*
X125136488Y-112866942D01*
X125107917Y-112914561D01*
X125050774Y-112962180D01*
X124993631Y-112962180D01*
X124936488Y-112914561D01*
X124907917Y-112866942D01*
X124879345Y-112771704D01*
X124850774Y-112581228D01*
X124850774Y-112343133D01*
X124879345Y-112152657D01*
X124907917Y-112057419D01*
X124936488Y-112009800D01*
X124993631Y-111962180D01*
X125422202Y-112057419D02*
X125450774Y-112009800D01*
X125507917Y-111962180D01*
X125650774Y-111962180D01*
X125707917Y-112009800D01*
X125736488Y-112057419D01*
X125765060Y-112152657D01*
X125765060Y-112247895D01*
X125736488Y-112390752D01*
X125393631Y-112962180D01*
X125765060Y-112962180D01*
X125965060Y-111962180D02*
X126336488Y-111962180D01*
X126136488Y-112343133D01*
X126222202Y-112343133D01*
X126279345Y-112390752D01*
X126307917Y-112438371D01*
X126336488Y-112533609D01*
X126336488Y-112771704D01*
X126307917Y-112866942D01*
X126279345Y-112914561D01*
X126222202Y-112962180D01*
X126050774Y-112962180D01*
X125993631Y-112914561D01*
X125965060Y-112866942D01*
X126850774Y-112295514D02*
X126850774Y-112962180D01*
X126707917Y-111914561D02*
X126565060Y-112628847D01*
X126936488Y-112628847D01*
X127507917Y-112866942D02*
X127479345Y-112914561D01*
X127393631Y-112962180D01*
X127336488Y-112962180D01*
X127250774Y-112914561D01*
X127193631Y-112819323D01*
X127165060Y-112724085D01*
X127136488Y-112533609D01*
X127136488Y-112390752D01*
X127165060Y-112200276D01*
X127193631Y-112105038D01*
X127250774Y-112009800D01*
X127336488Y-111962180D01*
X127393631Y-111962180D01*
X127479345Y-112009800D01*
X127507917Y-112057419D01*
X127736488Y-112914561D02*
X127822202Y-112962180D01*
X127965060Y-112962180D01*
X128022202Y-112914561D01*
X128050774Y-112866942D01*
X128079345Y-112771704D01*
X128079345Y-112676466D01*
X128050774Y-112581228D01*
X128022202Y-112533609D01*
X127965060Y-112485990D01*
X127850774Y-112438371D01*
X127793631Y-112390752D01*
X127765060Y-112343133D01*
X127736488Y-112247895D01*
X127736488Y-112152657D01*
X127765060Y-112057419D01*
X127793631Y-112009800D01*
X127850774Y-111962180D01*
X127993631Y-111962180D01*
X128079345Y-112009800D01*
X128765060Y-112676466D02*
X129050774Y-112676466D01*
X128707917Y-112962180D02*
X128907917Y-111962180D01*
X129107917Y-112962180D01*
X129307917Y-112962180D02*
X129307917Y-111962180D01*
X129450774Y-111962180D01*
X129536488Y-112009800D01*
X129593631Y-112105038D01*
X129622202Y-112200276D01*
X129650774Y-112390752D01*
X129650774Y-112533609D01*
X129622202Y-112724085D01*
X129593631Y-112819323D01*
X129536488Y-112914561D01*
X129450774Y-112962180D01*
X129307917Y-112962180D01*
X129879345Y-112676466D02*
X130165060Y-112676466D01*
X129822202Y-112962180D02*
X130022202Y-111962180D01*
X130222202Y-112962180D01*
X130422202Y-112962180D02*
X130422202Y-111962180D01*
X130650774Y-111962180D01*
X130707917Y-112009800D01*
X130736488Y-112057419D01*
X130765060Y-112152657D01*
X130765060Y-112295514D01*
X130736488Y-112390752D01*
X130707917Y-112438371D01*
X130650774Y-112485990D01*
X130422202Y-112485990D01*
X130936488Y-111962180D02*
X131279345Y-111962180D01*
X131107917Y-112962180D02*
X131107917Y-111962180D01*
X131479345Y-112438371D02*
X131679345Y-112438371D01*
X131765060Y-112962180D02*
X131479345Y-112962180D01*
X131479345Y-111962180D01*
X131765060Y-111962180D01*
X132365060Y-112962180D02*
X132165060Y-112485990D01*
X132022202Y-112962180D02*
X132022202Y-111962180D01*
X132250774Y-111962180D01*
X132307917Y-112009800D01*
X132336488Y-112057419D01*
X132365060Y-112152657D01*
X132365060Y-112295514D01*
X132336488Y-112390752D01*
X132307917Y-112438371D01*
X132250774Y-112485990D01*
X132022202Y-112485990D01*
X120522202Y-114612180D02*
X120322202Y-114135990D01*
X120179345Y-114612180D02*
X120179345Y-113612180D01*
X120407917Y-113612180D01*
X120465060Y-113659800D01*
X120493631Y-113707419D01*
X120522202Y-113802657D01*
X120522202Y-113945514D01*
X120493631Y-114040752D01*
X120465060Y-114088371D01*
X120407917Y-114135990D01*
X120179345Y-114135990D01*
X121007917Y-114564561D02*
X120950774Y-114612180D01*
X120836488Y-114612180D01*
X120779345Y-114564561D01*
X120750774Y-114469323D01*
X120750774Y-114088371D01*
X120779345Y-113993133D01*
X120836488Y-113945514D01*
X120950774Y-113945514D01*
X121007917Y-113993133D01*
X121036488Y-114088371D01*
X121036488Y-114183609D01*
X120750774Y-114278847D01*
X121236488Y-113945514D02*
X121379345Y-114612180D01*
X121522202Y-113945514D01*
X121750774Y-114516942D02*
X121779345Y-114564561D01*
X121750774Y-114612180D01*
X121722202Y-114564561D01*
X121750774Y-114516942D01*
X121750774Y-114612180D01*
X122407917Y-113612180D02*
X122607917Y-114612180D01*
X122807917Y-113612180D01*
X123322202Y-114612180D02*
X122979345Y-114612180D01*
X123150774Y-114612180D02*
X123150774Y-113612180D01*
X123093631Y-113755038D01*
X123036488Y-113850276D01*
X122979345Y-113897895D01*
X123550774Y-114326466D02*
X123836488Y-114326466D01*
X123493631Y-114612180D02*
X123693631Y-113612180D01*
X123893631Y-114612180D01*
D11*
%TO.C,TP5*%
X127344400Y-98221800D02*
G75*
G03*
X127344400Y-98221800I-700000J0D01*
G01*
%TO.C,TP6*%
X130265400Y-97370900D02*
G75*
G03*
X130265400Y-97370900I-700000J0D01*
G01*
%TO.C,TP4*%
X128995400Y-95732600D02*
G75*
G03*
X128995400Y-95732600I-700000J0D01*
G01*
%TO.C,TP2*%
X115317500Y-100558600D02*
G75*
G03*
X115317500Y-100558600I-700000J0D01*
G01*
%TO.C,TP1*%
X115342900Y-93802200D02*
G75*
G03*
X115342900Y-93802200I-700000J0D01*
G01*
D12*
%TO.C,J1*%
X113579400Y-89793500D02*
G75*
G03*
X113579400Y-89793500I-100000J0D01*
G01*
X104379400Y-90193500D02*
G75*
G03*
X104379400Y-90193500I-100000J0D01*
G01*
D13*
X103579400Y-106693500D02*
X103579400Y-86893500D01*
X116379400Y-106693500D02*
X103579400Y-106693500D01*
X116379400Y-86893500D02*
X116379400Y-106693500D01*
X103579400Y-86893500D02*
X116379400Y-86893500D01*
D11*
%TO.C,TP3*%
X118530600Y-96507300D02*
G75*
G03*
X118530600Y-96507300I-700000J0D01*
G01*
D13*
%TO.C,J2*%
X141867480Y-106762940D02*
X140917480Y-106762940D01*
X141867480Y-86332940D02*
X140917480Y-86332940D01*
X141867480Y-106762940D02*
X141867480Y-86332940D01*
D12*
X136217480Y-103947940D02*
G75*
G03*
X136217480Y-103947940I-100000J0D01*
G01*
%TO.C,TP5*%
D10*
X123159995Y-97445580D02*
X123731423Y-97445580D01*
X123445709Y-98445580D02*
X123445709Y-97445580D01*
X124064757Y-98445580D02*
X124064757Y-97445580D01*
X124445709Y-97445580D01*
X124540947Y-97493200D01*
X124588566Y-97540819D01*
X124636185Y-97636057D01*
X124636185Y-97778914D01*
X124588566Y-97874152D01*
X124540947Y-97921771D01*
X124445709Y-97969390D01*
X124064757Y-97969390D01*
X125540947Y-97445580D02*
X125064757Y-97445580D01*
X125017138Y-97921771D01*
X125064757Y-97874152D01*
X125159995Y-97826533D01*
X125398090Y-97826533D01*
X125493328Y-97874152D01*
X125540947Y-97921771D01*
X125588566Y-98017009D01*
X125588566Y-98255104D01*
X125540947Y-98350342D01*
X125493328Y-98397961D01*
X125398090Y-98445580D01*
X125159995Y-98445580D01*
X125064757Y-98397961D01*
X125017138Y-98350342D01*
%TO.C,TP6*%
X128532095Y-98461580D02*
X129103523Y-98461580D01*
X128817809Y-99461580D02*
X128817809Y-98461580D01*
X129436857Y-99461580D02*
X129436857Y-98461580D01*
X129817809Y-98461580D01*
X129913047Y-98509200D01*
X129960666Y-98556819D01*
X130008285Y-98652057D01*
X130008285Y-98794914D01*
X129960666Y-98890152D01*
X129913047Y-98937771D01*
X129817809Y-98985390D01*
X129436857Y-98985390D01*
X130865428Y-98461580D02*
X130674952Y-98461580D01*
X130579714Y-98509200D01*
X130532095Y-98556819D01*
X130436857Y-98699676D01*
X130389238Y-98890152D01*
X130389238Y-99271104D01*
X130436857Y-99366342D01*
X130484476Y-99413961D01*
X130579714Y-99461580D01*
X130770190Y-99461580D01*
X130865428Y-99413961D01*
X130913047Y-99366342D01*
X130960666Y-99271104D01*
X130960666Y-99033009D01*
X130913047Y-98937771D01*
X130865428Y-98890152D01*
X130770190Y-98842533D01*
X130579714Y-98842533D01*
X130484476Y-98890152D01*
X130436857Y-98937771D01*
X130389238Y-99033009D01*
%TO.C,TP4*%
X127033495Y-93736980D02*
X127604923Y-93736980D01*
X127319209Y-94736980D02*
X127319209Y-93736980D01*
X127938257Y-94736980D02*
X127938257Y-93736980D01*
X128319209Y-93736980D01*
X128414447Y-93784600D01*
X128462066Y-93832219D01*
X128509685Y-93927457D01*
X128509685Y-94070314D01*
X128462066Y-94165552D01*
X128414447Y-94213171D01*
X128319209Y-94260790D01*
X127938257Y-94260790D01*
X129366828Y-94070314D02*
X129366828Y-94736980D01*
X129128733Y-93689361D02*
X128890638Y-94403647D01*
X129509685Y-94403647D01*
%TO.C,TP2*%
X113368295Y-98499680D02*
X113939723Y-98499680D01*
X113654009Y-99499680D02*
X113654009Y-98499680D01*
X114273057Y-99499680D02*
X114273057Y-98499680D01*
X114654009Y-98499680D01*
X114749247Y-98547300D01*
X114796866Y-98594919D01*
X114844485Y-98690157D01*
X114844485Y-98833014D01*
X114796866Y-98928252D01*
X114749247Y-98975871D01*
X114654009Y-99023490D01*
X114273057Y-99023490D01*
X115225438Y-98594919D02*
X115273057Y-98547300D01*
X115368295Y-98499680D01*
X115606390Y-98499680D01*
X115701628Y-98547300D01*
X115749247Y-98594919D01*
X115796866Y-98690157D01*
X115796866Y-98785395D01*
X115749247Y-98928252D01*
X115177819Y-99499680D01*
X115796866Y-99499680D01*
%TO.C,TP1*%
X113419095Y-91743280D02*
X113990523Y-91743280D01*
X113704809Y-92743280D02*
X113704809Y-91743280D01*
X114323857Y-92743280D02*
X114323857Y-91743280D01*
X114704809Y-91743280D01*
X114800047Y-91790900D01*
X114847666Y-91838519D01*
X114895285Y-91933757D01*
X114895285Y-92076614D01*
X114847666Y-92171852D01*
X114800047Y-92219471D01*
X114704809Y-92267090D01*
X114323857Y-92267090D01*
X115847666Y-92743280D02*
X115276238Y-92743280D01*
X115561952Y-92743280D02*
X115561952Y-91743280D01*
X115466714Y-91886138D01*
X115371476Y-91981376D01*
X115276238Y-92028995D01*
%TO.C,J1*%
D14*
X115189483Y-85762253D02*
X116096626Y-85762253D01*
X116278055Y-85822729D01*
X116399007Y-85943681D01*
X116459483Y-86125110D01*
X116459483Y-86246062D01*
X116459483Y-84492253D02*
X116459483Y-85217967D01*
X116459483Y-84855110D02*
X115189483Y-84855110D01*
X115370912Y-84976062D01*
X115491864Y-85097015D01*
X115552340Y-85217967D01*
%TO.C,TP3*%
D10*
X116568695Y-94511680D02*
X117140123Y-94511680D01*
X116854409Y-95511680D02*
X116854409Y-94511680D01*
X117473457Y-95511680D02*
X117473457Y-94511680D01*
X117854409Y-94511680D01*
X117949647Y-94559300D01*
X117997266Y-94606919D01*
X118044885Y-94702157D01*
X118044885Y-94845014D01*
X117997266Y-94940252D01*
X117949647Y-94987871D01*
X117854409Y-95035490D01*
X117473457Y-95035490D01*
X118378219Y-94511680D02*
X118997266Y-94511680D01*
X118663933Y-94892633D01*
X118806790Y-94892633D01*
X118902028Y-94940252D01*
X118949647Y-94987871D01*
X118997266Y-95083109D01*
X118997266Y-95321204D01*
X118949647Y-95416442D01*
X118902028Y-95464061D01*
X118806790Y-95511680D01*
X118521076Y-95511680D01*
X118425838Y-95464061D01*
X118378219Y-95416442D01*
%TO.C,J2*%
D14*
X135219923Y-106188933D02*
X136127066Y-106188933D01*
X136308495Y-106249409D01*
X136429447Y-106370361D01*
X136489923Y-106551790D01*
X136489923Y-106672742D01*
X135340876Y-105644647D02*
X135280400Y-105584171D01*
X135219923Y-105463219D01*
X135219923Y-105160838D01*
X135280400Y-105039885D01*
X135340876Y-104979409D01*
X135461828Y-104918933D01*
X135582780Y-104918933D01*
X135764209Y-104979409D01*
X136489923Y-105705123D01*
X136489923Y-104918933D01*
%TO.C,H4*%
D10*
X138739975Y-83243680D02*
X138739975Y-82243680D01*
X138739975Y-82719871D02*
X139311403Y-82719871D01*
X139311403Y-83243680D02*
X139311403Y-82243680D01*
X140216165Y-82577014D02*
X140216165Y-83243680D01*
X139978070Y-82196061D02*
X139739975Y-82910347D01*
X140359022Y-82910347D01*
%TO.C,H3*%
X138790775Y-110488120D02*
X138790775Y-109488120D01*
X138790775Y-109964311D02*
X139362203Y-109964311D01*
X139362203Y-110488120D02*
X139362203Y-109488120D01*
X139743156Y-109488120D02*
X140362203Y-109488120D01*
X140028870Y-109869073D01*
X140171727Y-109869073D01*
X140266965Y-109916692D01*
X140314584Y-109964311D01*
X140362203Y-110059549D01*
X140362203Y-110297644D01*
X140314584Y-110392882D01*
X140266965Y-110440501D01*
X140171727Y-110488120D01*
X139886013Y-110488120D01*
X139790775Y-110440501D01*
X139743156Y-110392882D01*
%TO.C,H2*%
X104952895Y-110488120D02*
X104952895Y-109488120D01*
X104952895Y-109964311D02*
X105524323Y-109964311D01*
X105524323Y-110488120D02*
X105524323Y-109488120D01*
X105952895Y-109583359D02*
X106000514Y-109535740D01*
X106095752Y-109488120D01*
X106333847Y-109488120D01*
X106429085Y-109535740D01*
X106476704Y-109583359D01*
X106524323Y-109678597D01*
X106524323Y-109773835D01*
X106476704Y-109916692D01*
X105905276Y-110488120D01*
X106524323Y-110488120D01*
%TO.C,H1*%
X104978295Y-83352900D02*
X104978295Y-82352900D01*
X104978295Y-82829091D02*
X105549723Y-82829091D01*
X105549723Y-83352900D02*
X105549723Y-82352900D01*
X106549723Y-83352900D02*
X105978295Y-83352900D01*
X106264009Y-83352900D02*
X106264009Y-82352900D01*
X106168771Y-82495758D01*
X106073533Y-82590996D01*
X105978295Y-82638615D01*
%TD*%
M02*
