%TF.GenerationSoftware,KiCad,Pcbnew,5.1.10-88a1d61d58~88~ubuntu18.04.1*%
%TF.CreationDate,2021-11-12T09:48:00+07:00*%
%TF.ProjectId,MX8Mx_EVK_MIPI_CSI-EYECLOUDAI_2MGSMOD_AR0234-ADAPTER,4d58384d-785f-4455-964b-5f4d4950495f,rev?*%
%TF.SameCoordinates,Original*%
%TF.FileFunction,Soldermask,Top*%
%TF.FilePolarity,Negative*%
%FSLAX46Y46*%
G04 Gerber Fmt 4.6, Leading zero omitted, Abs format (unit mm)*
G04 Created by KiCad (PCBNEW 5.1.10-88a1d61d58~88~ubuntu18.04.1) date 2021-11-12 09:48:00*
%MOMM*%
%LPD*%
G01*
G04 APERTURE LIST*
%ADD10C,1.000000*%
%ADD11C,1.550000*%
%ADD12R,1.800000X0.350000*%
%ADD13C,1.308000*%
%ADD14R,1.100000X0.300000*%
%ADD15R,3.100000X2.300000*%
%ADD16C,4.400000*%
G04 APERTURE END LIST*
D10*
%TO.C,TP5*%
X126644400Y-98221800D03*
%TD*%
%TO.C,TP6*%
X129565400Y-97370900D03*
%TD*%
%TO.C,TP4*%
X128295400Y-95732600D03*
%TD*%
%TO.C,TP2*%
X114617500Y-100558600D03*
%TD*%
%TO.C,TP1*%
X114642900Y-93802200D03*
%TD*%
D11*
%TO.C,J1*%
X108879400Y-88793500D03*
X108879400Y-104793500D03*
D12*
X111789400Y-89793500D03*
X111789400Y-90593500D03*
X111789400Y-91393500D03*
X111789400Y-92193500D03*
X111789400Y-92993500D03*
X111789400Y-93793500D03*
X111789400Y-94593500D03*
X111789400Y-95393500D03*
X111789400Y-96193500D03*
X111789400Y-96993500D03*
X111789400Y-97793500D03*
X111789400Y-98593500D03*
X111789400Y-99393500D03*
X111789400Y-100193500D03*
X111789400Y-100993500D03*
X111789400Y-101793500D03*
X111789400Y-102593500D03*
X111789400Y-103393500D03*
X105969400Y-90193500D03*
X105969400Y-90993500D03*
X105969400Y-91793500D03*
X105969400Y-92593500D03*
X105969400Y-93393500D03*
X105969400Y-94193500D03*
X105969400Y-94993500D03*
X105969400Y-95793500D03*
X105969400Y-96593500D03*
X105969400Y-97393500D03*
X105969400Y-98193500D03*
X105969400Y-98993500D03*
X105969400Y-99793500D03*
X105969400Y-100593500D03*
X105969400Y-101393500D03*
X105969400Y-102193500D03*
X105969400Y-102993500D03*
X105969400Y-103793500D03*
D13*
X114119400Y-87893500D03*
X110879400Y-87893500D03*
X106879400Y-87893500D03*
X104849400Y-87893500D03*
X115119400Y-105693500D03*
X110879400Y-105693500D03*
X106879400Y-105693500D03*
X104849400Y-105693500D03*
%TD*%
D10*
%TO.C,TP3*%
X117830600Y-96507300D03*
%TD*%
D14*
%TO.C,J2*%
X137317480Y-89297940D03*
X137317480Y-89797940D03*
X137317480Y-90297940D03*
X137317480Y-90797940D03*
X137317480Y-91297940D03*
X137317480Y-91797940D03*
X137317480Y-92297940D03*
X137317480Y-92797940D03*
X137317480Y-93297940D03*
X137317480Y-93797940D03*
X137317480Y-94297940D03*
X137317480Y-94797940D03*
X137317480Y-95297940D03*
X137317480Y-95797940D03*
X137317480Y-96297940D03*
X137317480Y-96797940D03*
X137317480Y-97297940D03*
X137317480Y-97797940D03*
X137317480Y-98297940D03*
X137317480Y-98797940D03*
X137317480Y-99297940D03*
X137317480Y-99797940D03*
X137317480Y-100297940D03*
X137317480Y-100797940D03*
D15*
X139017480Y-105467940D03*
X139017480Y-87627940D03*
D14*
X137317480Y-101297940D03*
X137317480Y-101797940D03*
X137317480Y-102297940D03*
X137317480Y-102797940D03*
X137317480Y-103297940D03*
X137317480Y-103797940D03*
%TD*%
D16*
%TO.C,H4*%
X139552680Y-79159100D03*
%TD*%
%TO.C,H3*%
X139552680Y-113235740D03*
%TD*%
%TO.C,H2*%
X105714800Y-113235740D03*
%TD*%
%TO.C,H1*%
X105714800Y-79159100D03*
%TD*%
M02*
